<svg xmlns="http://www.w3.org/2000/svg" aria-hidden="true" style="position:absolute;width:0;height:0;overflow:hidden"><defs><symbol id="icon-pointer" viewBox="0 0 45 32"><path fill="#ecd979" d="M39.199 18.762a60.644 60.644 0 0 1-.476-4.927c-.031-1.468.025-2.739.167-3.812L3.182 30.639l-1.689-2.926L37.201 7.097c-1.027-.459-2.169-1.07-3.425-1.831a69.092 69.092 0 0 1-3.989-2.806l2.144-1.238c4.53 1.905 8.673 2.857 12.429 2.856l.724 1.254c-1.906 3.206-3.153 7.27-3.741 12.192l-2.144 1.238z" style="fill:var(--color1, #ecd979)"/></symbol><symbol id="icon-Star-10" viewBox="0 0 32 32"><path fill="#ecd979" d="M15.434.333a.653.653 0 0 1 1.133 0l1.84 3.203c.19.33.621.429.935.214l3.081-2.107a.653.653 0 0 1 1.02.496l.239 3.642a.653.653 0 0 0 .754.602l3.69-.584c.504-.08.9.423.706.894l-1.386 3.36a.653.653 0 0 0 .421.876l3.555 1.036a.653.653 0 0 1 .252 1.115l-2.731 2.433a.654.654 0 0 0 0 .975l2.731 2.433a.653.653 0 0 1-.252 1.115l-3.555 1.036a.653.653 0 0 0-.421.876l1.386 3.36a.653.653 0 0 1-.706.894l-3.69-.584a.653.653 0 0 0-.754.602l-.239 3.642a.653.653 0 0 1-1.02.496l-3.081-2.107a.653.653 0 0 0-.935.214l-1.84 3.203a.653.653 0 0 1-1.133 0l-1.84-3.203a.653.653 0 0 0-.935-.214l-3.081 2.107a.652.652 0 0 1-1.02-.496l-.239-3.642a.653.653 0 0 0-.754-.602l-3.69.584a.653.653 0 0 1-.706-.894l1.386-3.36a.653.653 0 0 0-.421-.876L.579 20.036a.653.653 0 0 1-.252-1.115l2.731-2.433a.654.654 0 0 0 0-.975L.327 13.08a.653.653 0 0 1 .252-1.115l3.555-1.036a.653.653 0 0 0 .421-.876l-1.386-3.36a.653.653 0 0 1 .706-.894l3.69.584c.38.06.729-.219.754-.602l.239-3.642a.653.653 0 0 1 1.02-.496l3.081 2.107a.653.653 0 0 0 .935-.214l1.84-3.203z" style="fill:var(--color1, #ecd979)"/></symbol><symbol id="icon-window-svg" viewBox="0 0 32 32"><path stroke-linecap="round" stroke-linejoin="round" stroke-width="1.778" d="M24 8 8 24M8 8l16 16"/></symbol><symbol id="icon-icon_youtube" viewBox="0 0 46 32"><path d="M35.929.444C33.813.32 29.458.195 22.863.195h-.871c-6.347 0-10.578.124-12.693.373-2.862.249-4.853.996-5.973 1.991-.996.871-1.742 2.489-1.991 4.604-.124 1.369-.249 4.231-.249 8.587v.622c0 4.107.124 6.969.373 8.338.373 1.991.996 3.484 2.24 4.356 1.244.996 3.36 1.618 6.347 1.867 2.116.124 6.471.249 13.067.249h.871c6.347 0 10.578-.124 12.693-.373 2.862-.249 4.853-.996 5.973-1.991.996-.871 1.742-2.489 1.991-4.604.124-1.369.249-4.231.249-8.587v-.622c0-4.107-.124-6.969-.373-8.338-.373-1.991-.996-3.484-2.24-4.356-1.244-.996-3.36-1.618-6.347-1.867zm-4.853 15.307-13.689 8.213V7.537l13.689 8.213z"/></symbol><symbol id="icon-icon_facebook" viewBox="0 0 32 32"><path fill="#fcf9f9" d="M19.52 4.64h.96v3.6h-1.2c-.48 0-.96 0-1.2.24s-.24.48-.24 1.04v1.28h2.64v3.04h-2.64v13.2h-4.08V13.76H11.6v-3.04h2.16V9.68c0-1.76.24-3.04.72-3.6.72-1.04 2.16-1.52 4.32-1.52.24.08.48.08.72.08z" style="fill:var(--color1, #fcf9f9)"/></symbol><symbol id="icon-icon_nav_menu" viewBox="0 0 48 32"><path fill="none" stroke="#ecd979" stroke-linecap="round" stroke-width="2.667" d="M8.638 5.455h38.029M8.638 24.849h38.029M20.116 15.151h26.551" style="stroke:var(--color2, #ecd979)"/></symbol><symbol id="icon-icon_instagram" viewBox="0 0 32 32"><path d="M28.717 10.756a9.264 9.264 0 0 0-.596-3.145 6.547 6.547 0 0 0-3.743-3.737 9.42 9.42 0 0 0-3.108-.596c-1.368-.061-1.801-.078-5.273-.078s-3.917 0-5.274.078a9.418 9.418 0 0 0-3.106.596 6.541 6.541 0 0 0-3.743 3.737 9.288 9.288 0 0 0-.596 3.101c-.061 1.367-.08 1.8-.08 5.265s0 3.909.08 5.265a9.335 9.335 0 0 0 .596 3.104 6.548 6.548 0 0 0 3.744 3.735 9.37 9.37 0 0 0 3.106.639c1.369.061 1.803.08 5.274.08s3.916 0 5.274-.08a9.357 9.357 0 0 0 3.108-.595 6.555 6.555 0 0 0 3.743-3.737 9.35 9.35 0 0 0 .596-3.104c.061-1.365.08-1.798.08-5.265-.003-3.466-.003-3.906-.082-5.264zM15.99 22.531c-3.631 0-6.572-2.936-6.572-6.561s2.941-6.561 6.572-6.561c3.628 0 6.572 2.936 6.572 6.561s-2.944 6.561-6.572 6.561zm6.833-11.835a1.53 1.53 0 1 1 0-3.06 1.53 1.53 0 1 1 0 3.06z"/><path d="M15.992 19.976a4.004 4.004 0 1 0 0-8.009 4.004 4.004 0 0 0 0 8.009z"/></symbol><symbol id="icon-circle-up" viewBox="0 0 32 32">
<path d="M0 16c0 8.837 7.163 16 16 16s16-7.163 16-16-7.163-16-16-16-16 7.163-16 16zM29 16c0 7.18-5.82 13-13 13s-13-5.82-13-13 5.82-13 13-13 13 5.82 13 13z"></path>
<path d="M22.086 20.914l2.829-2.829-8.914-8.914-8.914 8.914 2.828 2.828 6.086-6.086z"></path>
</symbol></defs></svg>