<svg aria-hidden="true" style="position: absolute; width: 0; height: 0; overflow: hidden;" version="1.1" xmlns="http://www.w3.org/2000/svg" xmlns:xlink="http://www.w3.org/1999/xlink">
<defs>
<symbol id="icon-icon_youtube" viewBox="0 0 46 32">
<path  d="M35.929 0.444c-2.116-0.124-6.471-0.249-13.066-0.249h-0.871c-6.347 0-10.578 0.124-12.693 0.373-2.862 0.249-4.853 0.996-5.973 1.991-0.996 0.871-1.742 2.489-1.991 4.604-0.124 1.369-0.249 4.231-0.249 8.587v0.622c0 4.107 0.124 6.969 0.373 8.338 0.373 1.991 0.996 3.484 2.24 4.356 1.244 0.996 3.36 1.618 6.347 1.867 2.116 0.124 6.471 0.249 13.067 0.249h0.871c6.347 0 10.578-0.124 12.693-0.373 2.862-0.249 4.853-0.996 5.973-1.991 0.996-0.871 1.742-2.489 1.991-4.604 0.124-1.369 0.249-4.231 0.249-8.587v-0.622c0-4.107-0.124-6.969-0.373-8.338-0.373-1.991-0.996-3.484-2.24-4.356-1.244-0.996-3.36-1.618-6.347-1.867zM31.076 15.751l-13.689 8.213v-16.427l13.689 8.213z"></path>
</symbol>
<symbol id="icon-icon_facebook" viewBox="0 0 13 32">
<path d="M11.329 0.096c0.336 0 0.672 0 1.344 0v5.040c-0.336 0-1.008 0-1.68 0s-1.344 0-1.68 0.336c-0.336 0.336-0.336 0.672-0.336 1.456 0 0.672 0 1.12 0 1.792h3.696v4.256h-3.696v18.48h-5.712v-18.592h-3.024v-4.256h3.024v-1.456c0-2.464 0.336-4.256 1.008-5.040 1.008-1.456 3.024-2.128 6.048-2.128 0.336 0.112 0.672 0.112 1.008 0.112z"></path>
</symbol>
<symbol id="icon-icon_nav_menu" viewBox="0 0 48 32">
<path fill="none" stroke="#ecd979" style="stroke: var(--color2, #ecd979)" stroke-linejoin="miter" stroke-linecap="round" stroke-miterlimit="4" stroke-width="2.6667" d="M8.638 5.455h38.029"></path>
<path fill="none" stroke="#ecd979" style="stroke: var(--color2, #ecd979)" stroke-linejoin="miter" stroke-linecap="round" stroke-miterlimit="4" stroke-width="2.6667" d="M8.638 24.849h38.029"></path>
<path fill="none" stroke="#ecd979" style="stroke: var(--color2, #ecd979)" stroke-linejoin="miter" stroke-linecap="round" stroke-miterlimit="4" stroke-width="2.6667" d="M20.116 15.151h26.551"></path>
</symbol>
<symbol id="icon-icon_instagram" viewBox="0 0 32 32">
<path  d="M28.717 10.756c-0.016-1.074-0.215-2.14-0.596-3.145-0.667-1.716-2.024-3.073-3.743-3.737-0.994-0.373-2.044-0.573-3.108-0.596-1.368-0.061-1.801-0.078-5.273-0.078s-3.917 0-5.274 0.078c-1.062 0.023-2.112 0.223-3.106 0.596-1.719 0.664-3.078 2.021-3.743 3.737-0.374 0.992-0.576 2.041-0.596 3.101-0.061 1.367-0.080 1.8-0.080 5.265s0 3.909 0.080 5.265c0.021 1.062 0.222 2.109 0.596 3.104 0.667 1.714 2.024 3.071 3.744 3.735 0.989 0.386 2.040 0.605 3.106 0.639 1.369 0.061 1.803 0.080 5.274 0.080s3.916 0 5.274-0.080c1.062-0.021 2.113-0.221 3.108-0.595 1.719-0.666 3.076-2.022 3.743-3.737 0.374-0.994 0.574-2.041 0.596-3.104 0.061-1.365 0.080-1.798 0.080-5.265-0.003-3.466-0.003-3.906-0.082-5.264zM15.99 22.531c-3.631 0-6.572-2.936-6.572-6.561s2.941-6.561 6.572-6.561c3.628 0 6.572 2.936 6.572 6.561s-2.944 6.561-6.572 6.561zM22.823 10.696c-0.849 0-1.532-0.684-1.532-1.53s0.684-1.53 1.532-1.53c0.846 0 1.531 0.684 1.531 1.53s-0.685 1.53-1.531 1.53z"></path>
<path  d="M15.992 19.976c2.211 0 4.004-1.793 4.004-4.004s-1.793-4.004-4.004-4.004c-2.211 0-4.004 1.793-4.004 4.004s1.793 4.004 4.004 4.004z"></path>
</symbol>

<symbol id="icon-untitled" viewBox="0 0 48 32">
<path fill="#ecd979" style="fill: var(--color1, #ecd979)" d="M41.648 18.935c-0.261-1.955-0.429-3.7-0.506-5.235-0.033-1.56 0.026-2.91 0.178-4.050l-37.94 21.905-1.795-3.109 37.94-21.905c-1.092-0.488-2.305-1.137-3.639-1.945-1.291-0.834-2.704-1.827-4.238-2.981l2.278-1.315c4.813 2.024 9.215 3.036 13.206 3.035l0.769 1.332c-2.025 3.406-3.35 7.724-3.975 12.954l-2.278 1.315z"></path>
</symbol>

<symbol id="icon-elements_about" viewBox="0 0 20 32">
<path fill="#fcf9f9" style="fill: var(--color1, #fcf9f9)" opacity="0.1" d="M14.619 31.964h-1.123v-1.142h1.123v1.142z"></path>
<path fill="#fcf9f9" style="fill: var(--color1, #fcf9f9)" opacity="0.1" d="M7.882 31.964h-1.123v-1.142h1.123v1.142z"></path>
<path fill="#fcf9f9" style="fill: var(--color1, #fcf9f9)" opacity="0.1" d="M6.759 31.964h-1.123v-1.142h1.123v1.142z"></path>
<path fill="#fcf9f9" style="fill: var(--color1, #fcf9f9)" opacity="0.1" d="M5.636 31.964h-1.123v-1.142h1.123v1.142z"></path>
<path fill="#fcf9f9" style="fill: var(--color1, #fcf9f9)" opacity="0.1" d="M1.145 31.964h-1.123v-1.142h1.123v1.142z"></path>
<path fill="#fcf9f9" style="fill: var(--color1, #fcf9f9)" opacity="0.1" d="M20.232 30.823h-1.123v-1.142h1.123v1.142z"></path>
<path fill="#fcf9f9" style="fill: var(--color1, #fcf9f9)" opacity="0.1" d="M15.741 30.823h-1.123v-1.142h1.123v1.142z"></path>
<path fill="#fcf9f9" style="fill: var(--color1, #fcf9f9)" opacity="0.1" d="M14.619 30.823h-1.123v-1.142h1.123v1.142z"></path>
<path fill="#fcf9f9" style="fill: var(--color1, #fcf9f9)" opacity="0.1" d="M6.759 30.823h-1.123v-1.142h1.123v1.142z"></path>
<path fill="#fcf9f9" style="fill: var(--color1, #fcf9f9)" opacity="0.1" d="M5.636 30.823h-1.123v-1.142h1.123v1.142z"></path>
<path fill="#fcf9f9" style="fill: var(--color1, #fcf9f9)" opacity="0.1" d="M4.513 30.823h-1.123v-1.142h1.123v1.142z"></path>
<path fill="#fcf9f9" style="fill: var(--color1, #fcf9f9)" opacity="0.1" d="M20.232 29.681h-1.123v-1.142h1.123v1.142z"></path>
<path fill="#fcf9f9" style="fill: var(--color1, #fcf9f9)" opacity="0.1" d="M19.11 29.681h-1.123v-1.142h1.123v1.142z"></path>
<path fill="#fcf9f9" style="fill: var(--color1, #fcf9f9)" opacity="0.1" d="M16.864 29.681h-1.123v-1.142h1.123v1.142z"></path>
<path fill="#fcf9f9" style="fill: var(--color1, #fcf9f9)" opacity="0.1" d="M15.741 29.681h-1.123v-1.142h1.123v1.142z"></path>
<path fill="#fcf9f9" style="fill: var(--color1, #fcf9f9)" opacity="0.1" d="M14.619 29.681h-1.123v-1.142h1.123v1.142z"></path>
<path fill="#fcf9f9" style="fill: var(--color1, #fcf9f9)" opacity="0.1" d="M5.636 29.681h-1.123v-1.142h1.123v1.142z"></path>
<path fill="#fcf9f9" style="fill: var(--color1, #fcf9f9)" opacity="0.1" d="M4.513 29.681h-1.123v-1.142h1.123v1.142z"></path>
<path fill="#fcf9f9" style="fill: var(--color1, #fcf9f9)" opacity="0.1" d="M3.391 29.681h-1.123v-1.142h1.123v1.142z"></path>
<path fill="#fcf9f9" style="fill: var(--color1, #fcf9f9)" opacity="0.1" d="M20.232 28.54h-1.123v-1.142h1.123v1.142z"></path>
<path fill="#fcf9f9" style="fill: var(--color1, #fcf9f9)" opacity="0.1" d="M19.11 28.54h-1.123v-1.142h1.123v1.142z"></path>
<path fill="#fcf9f9" style="fill: var(--color1, #fcf9f9)" opacity="0.1" d="M16.864 28.54h-1.123v-1.142h1.123v1.142z"></path>
<path fill="#fcf9f9" style="fill: var(--color1, #fcf9f9)" opacity="0.1" d="M15.741 28.54h-1.123v-1.142h1.123v1.142z"></path>
<path fill="#fcf9f9" style="fill: var(--color1, #fcf9f9)" opacity="0.1" d="M12.373 28.54h-1.123v-1.142h1.123v1.142z"></path>
<path fill="#fcf9f9" style="fill: var(--color1, #fcf9f9)" opacity="0.1" d="M11.25 28.54h-1.123v-1.142h1.123v1.142z"></path>
<path fill="#fcf9f9" style="fill: var(--color1, #fcf9f9)" opacity="0.1" d="M10.127 28.54h-1.123v-1.142h1.123v1.142z"></path>
<path fill="#fcf9f9" style="fill: var(--color1, #fcf9f9)" opacity="0.1" d="M4.513 28.54h-1.123v-1.142h1.123v1.142z"></path>
<path fill="#fcf9f9" style="fill: var(--color1, #fcf9f9)" opacity="0.1" d="M3.391 28.54h-1.123v-1.142h1.123v1.142z"></path>
<path fill="#fcf9f9" style="fill: var(--color1, #fcf9f9)" opacity="0.1" d="M2.268 28.54h-1.123v-1.142h1.123v1.142z"></path>
<path fill="#fcf9f9" style="fill: var(--color1, #fcf9f9)" opacity="0.1" d="M19.11 27.398h-1.123v-1.142h1.123v1.142z"></path>
<path fill="#fcf9f9" style="fill: var(--color1, #fcf9f9)" opacity="0.1" d="M16.864 27.398h-1.123v-1.142h1.123v1.142z"></path>
<path fill="#fcf9f9" style="fill: var(--color1, #fcf9f9)" opacity="0.1" d="M13.496 27.398h-1.123v-1.142h1.123v1.142z"></path>
<path fill="#fcf9f9" style="fill: var(--color1, #fcf9f9)" opacity="0.1" d="M12.373 27.398h-1.123v-1.142h1.123v1.142z"></path>
<path fill="#fcf9f9" style="fill: var(--color1, #fcf9f9)" opacity="0.1" d="M11.25 27.398h-1.123v-1.142h1.123v1.142z"></path>
<path fill="#fcf9f9" style="fill: var(--color1, #fcf9f9)" opacity="0.1" d="M3.391 27.398h-1.123v-1.142h1.123v1.142z"></path>
<path fill="#fcf9f9" style="fill: var(--color1, #fcf9f9)" opacity="0.1" d="M2.268 27.398h-1.123v-1.142h1.123v1.142z"></path>
<path fill="#fcf9f9" style="fill: var(--color1, #fcf9f9)" opacity="0.1" d="M1.145 27.398h-1.123v-1.142h1.123v1.142z"></path>
<path fill="#fcf9f9" style="fill: var(--color1, #fcf9f9)" opacity="0.1" d="M14.619 26.256h-1.123v-1.142h1.123v1.142z"></path>
<path fill="#fcf9f9" style="fill: var(--color1, #fcf9f9)" opacity="0.1" d="M13.496 26.256h-1.123v-1.142h1.123v1.142z"></path>
<path fill="#fcf9f9" style="fill: var(--color1, #fcf9f9)" opacity="0.1" d="M12.373 26.256h-1.123v-1.142h1.123v1.142z"></path>
<path fill="#fcf9f9" style="fill: var(--color1, #fcf9f9)" opacity="0.1" d="M2.268 26.256h-1.123v-1.142h1.123v1.142z"></path>
<path fill="#fcf9f9" style="fill: var(--color1, #fcf9f9)" opacity="0.1" d="M1.145 26.256h-1.123v-1.142h1.123v1.142z"></path>
<path fill="#fcf9f9" style="fill: var(--color1, #fcf9f9)" opacity="0.1" d="M19.11 25.115h-1.123v-1.142h1.123v1.142z"></path>
<path fill="#fcf9f9" style="fill: var(--color1, #fcf9f9)" opacity="0.1" d="M16.864 25.115h-1.123v-1.142h1.123v1.142z"></path>
<path fill="#fcf9f9" style="fill: var(--color1, #fcf9f9)" opacity="0.1" d="M6.759 25.115h-1.123v-1.142h1.123v1.142z"></path>
<path fill="#fcf9f9" style="fill: var(--color1, #fcf9f9)" opacity="0.1" d="M1.145 25.115h-1.123v-1.142h1.123v1.142z"></path>
<path fill="#fcf9f9" style="fill: var(--color1, #fcf9f9)" opacity="0.1" d="M20.232 23.973h-1.123v-1.142h1.123v1.142z"></path>
<path fill="#fcf9f9" style="fill: var(--color1, #fcf9f9)" opacity="0.1" d="M19.11 23.973h-1.123v-1.142h1.123v1.142z"></path>
<path fill="#fcf9f9" style="fill: var(--color1, #fcf9f9)" opacity="0.1" d="M16.864 23.973h-1.123v-1.142h1.123v1.142z"></path>
<path fill="#fcf9f9" style="fill: var(--color1, #fcf9f9)" opacity="0.1" d="M15.741 23.973h-1.123v-1.142h1.123v1.142z"></path>
<path fill="#fcf9f9" style="fill: var(--color1, #fcf9f9)" opacity="0.1" d="M7.882 23.973h-1.123v-1.142h1.123v1.142z"></path>
<path fill="#fcf9f9" style="fill: var(--color1, #fcf9f9)" opacity="0.1" d="M6.759 23.973h-1.123v-1.142h1.123v1.142z"></path>
<path fill="#fcf9f9" style="fill: var(--color1, #fcf9f9)" opacity="0.1" d="M20.232 22.832h-1.123v-1.142h1.123v1.142z"></path>
<path fill="#fcf9f9" style="fill: var(--color1, #fcf9f9)" opacity="0.1" d="M15.741 22.832h-1.123v-1.142h1.123v1.142z"></path>
<path fill="#fcf9f9" style="fill: var(--color1, #fcf9f9)" opacity="0.1" d="M14.619 22.832h-1.123v-1.142h1.123v1.142z"></path>
<path fill="#fcf9f9" style="fill: var(--color1, #fcf9f9)" opacity="0.1" d="M9.005 22.832h-1.123v-1.142h1.123v1.142z"></path>
<path fill="#fcf9f9" style="fill: var(--color1, #fcf9f9)" opacity="0.1" d="M7.882 22.832h-1.123v-1.142h1.123v1.142z"></path>
<path fill="#fcf9f9" style="fill: var(--color1, #fcf9f9)" opacity="0.1" d="M6.759 22.832h-1.123v-1.142h1.123v1.142z"></path>
<path fill="#fcf9f9" style="fill: var(--color1, #fcf9f9)" opacity="0.1" d="M14.619 21.69h-1.123v-1.142h1.123v1.142z"></path>
<path fill="#fcf9f9" style="fill: var(--color1, #fcf9f9)" opacity="0.1" d="M13.496 21.69h-1.123v-1.142h1.123v1.142z"></path>
<path fill="#fcf9f9" style="fill: var(--color1, #fcf9f9)" opacity="0.1" d="M9.005 21.69h-1.123v-1.142h1.123v1.142z"></path>
<path fill="#fcf9f9" style="fill: var(--color1, #fcf9f9)" opacity="0.1" d="M7.882 21.69h-1.123v-1.142h1.123v1.142z"></path>
<path fill="#fcf9f9" style="fill: var(--color1, #fcf9f9)" opacity="0.1" d="M13.496 20.548h-1.123v-1.142h1.123v1.142z"></path>
<path fill="#fcf9f9" style="fill: var(--color1, #fcf9f9)" opacity="0.1" d="M12.373 20.548h-1.123v-1.142h1.123v1.142z"></path>
<path fill="#fcf9f9" style="fill: var(--color1, #fcf9f9)" opacity="0.1" d="M9.005 20.548h-1.123v-1.142h1.123v1.142z"></path>
<path fill="#fcf9f9" style="fill: var(--color1, #fcf9f9)" opacity="0.1" d="M5.636 20.548h-1.123v-1.142h1.123v1.142z"></path>
<path fill="#fcf9f9" style="fill: var(--color1, #fcf9f9)" opacity="0.1" d="M4.513 20.548h-1.123v-1.142h1.123v1.142z"></path>
<path fill="#fcf9f9" style="fill: var(--color1, #fcf9f9)" opacity="0.1" d="M3.391 20.548h-1.123v-1.142h1.123v1.142z"></path>
<path fill="#fcf9f9" style="fill: var(--color1, #fcf9f9)" opacity="0.1" d="M12.373 19.407h-1.123v-1.142h1.123v1.142z"></path>
<path fill="#fcf9f9" style="fill: var(--color1, #fcf9f9)" opacity="0.1" d="M11.25 19.407h-1.123v-1.142h1.123v1.142z"></path>
<path fill="#fcf9f9" style="fill: var(--color1, #fcf9f9)" opacity="0.1" d="M6.759 19.407h-1.123v-1.142h1.123v1.142z"></path>
<path fill="#fcf9f9" style="fill: var(--color1, #fcf9f9)" opacity="0.1" d="M5.636 19.407h-1.123v-1.142h1.123v1.142z"></path>
<path fill="#fcf9f9" style="fill: var(--color1, #fcf9f9)" opacity="0.1" d="M4.513 19.407h-1.123v-1.142h1.123v1.142z"></path>
<path fill="#fcf9f9" style="fill: var(--color1, #fcf9f9)" opacity="0.1" d="M17.987 18.265h-1.123v-1.142h1.123v1.142z"></path>
<path fill="#fcf9f9" style="fill: var(--color1, #fcf9f9)" opacity="0.1" d="M11.25 18.265h-1.123v-1.142h1.123v1.142z"></path>
<path fill="#fcf9f9" style="fill: var(--color1, #fcf9f9)" opacity="0.1" d="M10.127 18.265h-1.123v-1.142h1.123v1.142z"></path>
<path fill="#fcf9f9" style="fill: var(--color1, #fcf9f9)" opacity="0.1" d="M7.882 18.265h-1.123v-1.142h1.123v1.142z"></path>
<path fill="#fcf9f9" style="fill: var(--color1, #fcf9f9)" opacity="0.1" d="M6.759 18.265h-1.123v-1.142h1.123v1.142z"></path>
<path fill="#fcf9f9" style="fill: var(--color1, #fcf9f9)" opacity="0.1" d="M5.636 18.265h-1.123v-1.142h1.123v1.142z"></path>
<path fill="#fcf9f9" style="fill: var(--color1, #fcf9f9)" opacity="0.1" d="M1.123 17.124h-1.123v-1.142h1.123v1.142z"></path>
<path fill="#fcf9f9" style="fill: var(--color1, #fcf9f9)" opacity="0.1" d="M2.268 17.124h-1.123v-1.142h1.123v1.142z"></path>
<path fill="#fcf9f9" style="fill: var(--color1, #fcf9f9)" opacity="0.1" d="M1.123 18.265h-1.123v-1.142h1.123v1.142z"></path>
<path fill="#fcf9f9" style="fill: var(--color1, #fcf9f9)" opacity="0.1" d="M1.123 15.982h-1.123v-1.142h1.123v1.142z"></path>
<path fill="#fcf9f9" style="fill: var(--color1, #fcf9f9)" opacity="0.1" d="M19.11 17.124h-1.123v-1.142h1.123v1.142z"></path>
<path fill="#fcf9f9" style="fill: var(--color1, #fcf9f9)" opacity="0.1" d="M17.987 17.124h-1.123v-1.142h1.123v1.142z"></path>
<path fill="#fcf9f9" style="fill: var(--color1, #fcf9f9)" opacity="0.1" d="M16.864 17.124h-1.123v-1.142h1.123v1.142z"></path>
<path fill="#fcf9f9" style="fill: var(--color1, #fcf9f9)" opacity="0.1" d="M17.987 15.982h-1.123v-1.142h1.123v1.142z"></path>
<path fill="#fcf9f9" style="fill: var(--color1, #fcf9f9)" opacity="0.1" d="M11.25 15.982h-1.123v-1.142h1.123v1.142z"></path>
<path fill="#fcf9f9" style="fill: var(--color1, #fcf9f9)" opacity="0.1" d="M10.127 15.982h-1.123v-1.142h1.123v1.142z"></path>
<path fill="#fcf9f9" style="fill: var(--color1, #fcf9f9)" opacity="0.1" d="M7.882 15.982h-1.123v-1.142h1.123v1.142z"></path>
<path fill="#fcf9f9" style="fill: var(--color1, #fcf9f9)" opacity="0.1" d="M6.759 15.982h-1.123v-1.142h1.123v1.142z"></path>
<path fill="#fcf9f9" style="fill: var(--color1, #fcf9f9)" opacity="0.1" d="M5.636 15.982h-1.123v-1.142h1.123v1.142z"></path>
<path fill="#fcf9f9" style="fill: var(--color1, #fcf9f9)" opacity="0.1" d="M12.373 14.841h-1.123v-1.142h1.123v1.142z"></path>
<path fill="#fcf9f9" style="fill: var(--color1, #fcf9f9)" opacity="0.1" d="M11.25 14.841h-1.123v-1.142h1.123v1.142z"></path>
<path fill="#fcf9f9" style="fill: var(--color1, #fcf9f9)" opacity="0.1" d="M6.759 14.841h-1.123v-1.142h1.123v1.142z"></path>
<path fill="#fcf9f9" style="fill: var(--color1, #fcf9f9)" opacity="0.1" d="M5.636 14.841h-1.123v-1.142h1.123v1.142z"></path>
<path fill="#fcf9f9" style="fill: var(--color1, #fcf9f9)" opacity="0.1" d="M4.513 14.841h-1.123v-1.142h1.123v1.142z"></path>
<path fill="#fcf9f9" style="fill: var(--color1, #fcf9f9)" opacity="0.1" d="M13.496 13.699h-1.123v-1.142h1.123v1.142z"></path>
<path fill="#fcf9f9" style="fill: var(--color1, #fcf9f9)" opacity="0.1" d="M12.373 13.699h-1.123v-1.142h1.123v1.142z"></path>
<path fill="#fcf9f9" style="fill: var(--color1, #fcf9f9)" opacity="0.1" d="M9.005 13.699h-1.123v-1.142h1.123v1.142z"></path>
<path fill="#fcf9f9" style="fill: var(--color1, #fcf9f9)" opacity="0.1" d="M5.636 13.699h-1.123v-1.142h1.123v1.142z"></path>
<path fill="#fcf9f9" style="fill: var(--color1, #fcf9f9)" opacity="0.1" d="M4.513 13.699h-1.123v-1.142h1.123v1.142z"></path>
<path fill="#fcf9f9" style="fill: var(--color1, #fcf9f9)" opacity="0.1" d="M3.391 13.699h-1.123v-1.142h1.123v1.142z"></path>
<path fill="#fcf9f9" style="fill: var(--color1, #fcf9f9)" opacity="0.1" d="M14.619 12.557h-1.123v-1.142h1.123v1.142z"></path>
<path fill="#fcf9f9" style="fill: var(--color1, #fcf9f9)" opacity="0.1" d="M13.496 12.557h-1.123v-1.142h1.123v1.142z"></path>
<path fill="#fcf9f9" style="fill: var(--color1, #fcf9f9)" opacity="0.1" d="M9.005 12.557h-1.123v-1.142h1.123v1.142z"></path>
<path fill="#fcf9f9" style="fill: var(--color1, #fcf9f9)" opacity="0.1" d="M7.882 12.557h-1.123v-1.142h1.123v1.142z"></path>
<path fill="#fcf9f9" style="fill: var(--color1, #fcf9f9)" opacity="0.1" d="M20.232 11.416h-1.123v-1.142h1.123v1.142z"></path>
<path fill="#fcf9f9" style="fill: var(--color1, #fcf9f9)" opacity="0.1" d="M15.741 11.416h-1.123v-1.142h1.123v1.142z"></path>
<path fill="#fcf9f9" style="fill: var(--color1, #fcf9f9)" opacity="0.1" d="M14.619 11.416h-1.123v-1.142h1.123v1.142z"></path>
<path fill="#fcf9f9" style="fill: var(--color1, #fcf9f9)" opacity="0.1" d="M9.005 11.416h-1.123v-1.142h1.123v1.142z"></path>
<path fill="#fcf9f9" style="fill: var(--color1, #fcf9f9)" opacity="0.1" d="M7.882 11.416h-1.123v-1.142h1.123v1.142z"></path>
<path fill="#fcf9f9" style="fill: var(--color1, #fcf9f9)" opacity="0.1" d="M6.759 11.416h-1.123v-1.142h1.123v1.142z"></path>
<path fill="#fcf9f9" style="fill: var(--color1, #fcf9f9)" opacity="0.1" d="M20.232 10.274h-1.123v-1.142h1.123v1.142z"></path>
<path fill="#fcf9f9" style="fill: var(--color1, #fcf9f9)" opacity="0.1" d="M19.11 10.274h-1.123v-1.142h1.123v1.142z"></path>
<path fill="#fcf9f9" style="fill: var(--color1, #fcf9f9)" opacity="0.1" d="M16.864 10.274h-1.123v-1.142h1.123v1.142z"></path>
<path fill="#fcf9f9" style="fill: var(--color1, #fcf9f9)" opacity="0.1" d="M15.741 10.274h-1.123v-1.142h1.123v1.142z"></path>
<path fill="#fcf9f9" style="fill: var(--color1, #fcf9f9)" opacity="0.1" d="M7.882 10.274h-1.123v-1.142h1.123v1.142z"></path>
<path fill="#fcf9f9" style="fill: var(--color1, #fcf9f9)" opacity="0.1" d="M6.759 10.274h-1.123v-1.142h1.123v1.142z"></path>
<path fill="#fcf9f9" style="fill: var(--color1, #fcf9f9)" opacity="0.1" d="M19.11 9.133h-1.123v-1.142h1.123v1.142z"></path>
<path fill="#fcf9f9" style="fill: var(--color1, #fcf9f9)" opacity="0.1" d="M16.864 9.133h-1.123v-1.142h1.123v1.142z"></path>
<path fill="#fcf9f9" style="fill: var(--color1, #fcf9f9)" opacity="0.1" d="M6.759 9.133h-1.123v-1.142h1.123v1.142z"></path>
<path fill="#fcf9f9" style="fill: var(--color1, #fcf9f9)" opacity="0.1" d="M1.145 7.991h-1.123v-1.142h1.123v1.142z"></path>
<path fill="#fcf9f9" style="fill: var(--color1, #fcf9f9)" opacity="0.1" d="M14.619 6.849h-1.123v-1.142h1.123v1.142z"></path>
<path fill="#fcf9f9" style="fill: var(--color1, #fcf9f9)" opacity="0.1" d="M13.496 6.849h-1.123v-1.142h1.123v1.142z"></path>
<path fill="#fcf9f9" style="fill: var(--color1, #fcf9f9)" opacity="0.1" d="M12.373 6.849h-1.123v-1.142h1.123v1.142z"></path>
<path fill="#fcf9f9" style="fill: var(--color1, #fcf9f9)" opacity="0.1" d="M2.268 6.849h-1.123v-1.142h1.123v1.142z"></path>
<path fill="#fcf9f9" style="fill: var(--color1, #fcf9f9)" opacity="0.1" d="M1.145 6.849h-1.123v-1.142h1.123v1.142z"></path>
<path fill="#fcf9f9" style="fill: var(--color1, #fcf9f9)" opacity="0.1" d="M19.11 5.708h-1.123v-1.142h1.123v1.142z"></path>
<path fill="#fcf9f9" style="fill: var(--color1, #fcf9f9)" opacity="0.1" d="M16.864 5.708h-1.123v-1.142h1.123v1.142z"></path>
<path fill="#fcf9f9" style="fill: var(--color1, #fcf9f9)" opacity="0.1" d="M13.496 5.708h-1.123v-1.142h1.123v1.142z"></path>
<path fill="#fcf9f9" style="fill: var(--color1, #fcf9f9)" opacity="0.1" d="M12.373 5.708h-1.123v-1.142h1.123v1.142z"></path>
<path fill="#fcf9f9" style="fill: var(--color1, #fcf9f9)" opacity="0.1" d="M11.25 5.708h-1.123v-1.142h1.123v1.142z"></path>
<path fill="#fcf9f9" style="fill: var(--color1, #fcf9f9)" opacity="0.1" d="M3.391 5.708h-1.123v-1.142h1.123v1.142z"></path>
<path fill="#fcf9f9" style="fill: var(--color1, #fcf9f9)" opacity="0.1" d="M2.268 5.708h-1.123v-1.142h1.123v1.142z"></path>
<path fill="#fcf9f9" style="fill: var(--color1, #fcf9f9)" opacity="0.1" d="M1.145 5.708h-1.123v-1.142h1.123v1.142z"></path>
<path fill="#fcf9f9" style="fill: var(--color1, #fcf9f9)" opacity="0.1" d="M20.232 4.566h-1.123v-1.142h1.123v1.142z"></path>
<path fill="#fcf9f9" style="fill: var(--color1, #fcf9f9)" opacity="0.1" d="M19.11 4.566h-1.123v-1.142h1.123v1.142z"></path>
<path fill="#fcf9f9" style="fill: var(--color1, #fcf9f9)" opacity="0.1" d="M16.864 4.566h-1.123v-1.142h1.123v1.142z"></path>
<path fill="#fcf9f9" style="fill: var(--color1, #fcf9f9)" opacity="0.1" d="M15.741 4.566h-1.123v-1.142h1.123v1.142z"></path>
<path fill="#fcf9f9" style="fill: var(--color1, #fcf9f9)" opacity="0.1" d="M12.373 4.566h-1.123v-1.142h1.123v1.142z"></path>
<path fill="#fcf9f9" style="fill: var(--color1, #fcf9f9)" opacity="0.1" d="M11.25 4.566h-1.123v-1.142h1.123v1.142z"></path>
<path fill="#fcf9f9" style="fill: var(--color1, #fcf9f9)" opacity="0.1" d="M10.127 4.566h-1.123v-1.142h1.123v1.142z"></path>
<path fill="#fcf9f9" style="fill: var(--color1, #fcf9f9)" opacity="0.1" d="M4.513 4.566h-1.123v-1.142h1.123v1.142z"></path>
<path fill="#fcf9f9" style="fill: var(--color1, #fcf9f9)" opacity="0.1" d="M3.391 4.566h-1.123v-1.142h1.123v1.142z"></path>
<path fill="#fcf9f9" style="fill: var(--color1, #fcf9f9)" opacity="0.1" d="M2.268 4.566h-1.123v-1.142h1.123v1.142z"></path>
<path fill="#fcf9f9" style="fill: var(--color1, #fcf9f9)" opacity="0.1" d="M20.232 3.425h-1.123v-1.142h1.123v1.142z"></path>
<path fill="#fcf9f9" style="fill: var(--color1, #fcf9f9)" opacity="0.1" d="M19.11 3.425h-1.123v-1.142h1.123v1.142z"></path>
<path fill="#fcf9f9" style="fill: var(--color1, #fcf9f9)" opacity="0.1" d="M16.864 3.425h-1.123v-1.142h1.123v1.142z"></path>
<path fill="#fcf9f9" style="fill: var(--color1, #fcf9f9)" opacity="0.1" d="M15.741 3.425h-1.123v-1.142h1.123v1.142z"></path>
<path fill="#fcf9f9" style="fill: var(--color1, #fcf9f9)" opacity="0.1" d="M14.619 3.425h-1.123v-1.142h1.123v1.142z"></path>
<path fill="#fcf9f9" style="fill: var(--color1, #fcf9f9)" opacity="0.1" d="M5.636 3.425h-1.123v-1.142h1.123v1.142z"></path>
<path fill="#fcf9f9" style="fill: var(--color1, #fcf9f9)" opacity="0.1" d="M4.513 3.425h-1.123v-1.142h1.123v1.142z"></path>
<path fill="#fcf9f9" style="fill: var(--color1, #fcf9f9)" opacity="0.1" d="M3.391 3.425h-1.123v-1.142h1.123v1.142z"></path>
<path fill="#fcf9f9" style="fill: var(--color1, #fcf9f9)" opacity="0.1" d="M20.232 2.283h-1.123v-1.142h1.123v1.142z"></path>
<path fill="#fcf9f9" style="fill: var(--color1, #fcf9f9)" opacity="0.1" d="M15.741 2.283h-1.123v-1.142h1.123v1.142z"></path>
<path fill="#fcf9f9" style="fill: var(--color1, #fcf9f9)" opacity="0.1" d="M14.619 2.283h-1.123v-1.142h1.123v1.142z"></path>
<path fill="#fcf9f9" style="fill: var(--color1, #fcf9f9)" opacity="0.1" d="M6.759 2.283h-1.123v-1.142h1.123v1.142z"></path>
<path fill="#fcf9f9" style="fill: var(--color1, #fcf9f9)" opacity="0.1" d="M5.636 2.283h-1.123v-1.142h1.123v1.142z"></path>
<path fill="#fcf9f9" style="fill: var(--color1, #fcf9f9)" opacity="0.1" d="M4.513 2.283h-1.123v-1.142h1.123v1.142z"></path>
<path fill="#fcf9f9" style="fill: var(--color1, #fcf9f9)" opacity="0.1" d="M14.619 1.142h-1.123v-1.142h1.123v1.142z"></path>
<path fill="#fcf9f9" style="fill: var(--color1, #fcf9f9)" opacity="0.1" d="M7.882 1.142h-1.123v-1.142h1.123v1.142z"></path>
<path fill="#fcf9f9" style="fill: var(--color1, #fcf9f9)" opacity="0.1" d="M6.759 1.142h-1.123v-1.142h1.123v1.142z"></path>
<path fill="#fcf9f9" style="fill: var(--color1, #fcf9f9)" opacity="0.1" d="M5.636 1.142h-1.123v-1.142h1.123v1.142z"></path>
<path fill="#fcf9f9" style="fill: var(--color1, #fcf9f9)" opacity="0.1" d="M1.145 1.142h-1.123v-1.142h1.123v1.142z"></path>
</symbol>


</defs>
</svg>
