<svg aria-hidden="true" style="position: absolute; width: 0; height: 0; overflow: hidden;" version="1.1" xmlns="http://www.w3.org/2000/svg" xmlns:xlink="http://www.w3.org/1999/xlink">
<defs>

<symbol id="icon-untitled" viewBox="0 0 48 32">
<path fill="#ecd979" style="fill: var(--color1, #ecd979)" d="M41.648 18.935c-0.261-1.955-0.429-3.7-0.506-5.235-0.033-1.56 0.026-2.91 0.178-4.050l-37.94 21.905-1.795-3.109 37.94-21.905c-1.092-0.488-2.305-1.137-3.639-1.945-1.291-0.834-2.704-1.827-4.238-2.981l2.278-1.315c4.813 2.024 9.215 3.036 13.206 3.035l0.769 1.332c-2.025 3.406-3.35 7.724-3.975 12.954l-2.278 1.315z"></path>
</symbol>

<symbol id="icon-elements_about" viewBox="0 0 20 32">
<path fill="#fcf9f9" style="fill: var(--color1, #fcf9f9)" opacity="0.1" d="M14.619 31.964h-1.123v-1.142h1.123v1.142z"></path>
<path fill="#fcf9f9" style="fill: var(--color1, #fcf9f9)" opacity="0.1" d="M7.882 31.964h-1.123v-1.142h1.123v1.142z"></path>
<path fill="#fcf9f9" style="fill: var(--color1, #fcf9f9)" opacity="0.1" d="M6.759 31.964h-1.123v-1.142h1.123v1.142z"></path>
<path fill="#fcf9f9" style="fill: var(--color1, #fcf9f9)" opacity="0.1" d="M5.636 31.964h-1.123v-1.142h1.123v1.142z"></path>
<path fill="#fcf9f9" style="fill: var(--color1, #fcf9f9)" opacity="0.1" d="M1.145 31.964h-1.123v-1.142h1.123v1.142z"></path>
<path fill="#fcf9f9" style="fill: var(--color1, #fcf9f9)" opacity="0.1" d="M20.232 30.823h-1.123v-1.142h1.123v1.142z"></path>
<path fill="#fcf9f9" style="fill: var(--color1, #fcf9f9)" opacity="0.1" d="M15.741 30.823h-1.123v-1.142h1.123v1.142z"></path>
<path fill="#fcf9f9" style="fill: var(--color1, #fcf9f9)" opacity="0.1" d="M14.619 30.823h-1.123v-1.142h1.123v1.142z"></path>
<path fill="#fcf9f9" style="fill: var(--color1, #fcf9f9)" opacity="0.1" d="M6.759 30.823h-1.123v-1.142h1.123v1.142z"></path>
<path fill="#fcf9f9" style="fill: var(--color1, #fcf9f9)" opacity="0.1" d="M5.636 30.823h-1.123v-1.142h1.123v1.142z"></path>
<path fill="#fcf9f9" style="fill: var(--color1, #fcf9f9)" opacity="0.1" d="M4.513 30.823h-1.123v-1.142h1.123v1.142z"></path>
<path fill="#fcf9f9" style="fill: var(--color1, #fcf9f9)" opacity="0.1" d="M20.232 29.681h-1.123v-1.142h1.123v1.142z"></path>
<path fill="#fcf9f9" style="fill: var(--color1, #fcf9f9)" opacity="0.1" d="M19.11 29.681h-1.123v-1.142h1.123v1.142z"></path>
<path fill="#fcf9f9" style="fill: var(--color1, #fcf9f9)" opacity="0.1" d="M16.864 29.681h-1.123v-1.142h1.123v1.142z"></path>
<path fill="#fcf9f9" style="fill: var(--color1, #fcf9f9)" opacity="0.1" d="M15.741 29.681h-1.123v-1.142h1.123v1.142z"></path>
<path fill="#fcf9f9" style="fill: var(--color1, #fcf9f9)" opacity="0.1" d="M14.619 29.681h-1.123v-1.142h1.123v1.142z"></path>
<path fill="#fcf9f9" style="fill: var(--color1, #fcf9f9)" opacity="0.1" d="M5.636 29.681h-1.123v-1.142h1.123v1.142z"></path>
<path fill="#fcf9f9" style="fill: var(--color1, #fcf9f9)" opacity="0.1" d="M4.513 29.681h-1.123v-1.142h1.123v1.142z"></path>
<path fill="#fcf9f9" style="fill: var(--color1, #fcf9f9)" opacity="0.1" d="M3.391 29.681h-1.123v-1.142h1.123v1.142z"></path>
<path fill="#fcf9f9" style="fill: var(--color1, #fcf9f9)" opacity="0.1" d="M20.232 28.54h-1.123v-1.142h1.123v1.142z"></path>
<path fill="#fcf9f9" style="fill: var(--color1, #fcf9f9)" opacity="0.1" d="M19.11 28.54h-1.123v-1.142h1.123v1.142z"></path>
<path fill="#fcf9f9" style="fill: var(--color1, #fcf9f9)" opacity="0.1" d="M16.864 28.54h-1.123v-1.142h1.123v1.142z"></path>
<path fill="#fcf9f9" style="fill: var(--color1, #fcf9f9)" opacity="0.1" d="M15.741 28.54h-1.123v-1.142h1.123v1.142z"></path>
<path fill="#fcf9f9" style="fill: var(--color1, #fcf9f9)" opacity="0.1" d="M12.373 28.54h-1.123v-1.142h1.123v1.142z"></path>
<path fill="#fcf9f9" style="fill: var(--color1, #fcf9f9)" opacity="0.1" d="M11.25 28.54h-1.123v-1.142h1.123v1.142z"></path>
<path fill="#fcf9f9" style="fill: var(--color1, #fcf9f9)" opacity="0.1" d="M10.127 28.54h-1.123v-1.142h1.123v1.142z"></path>
<path fill="#fcf9f9" style="fill: var(--color1, #fcf9f9)" opacity="0.1" d="M4.513 28.54h-1.123v-1.142h1.123v1.142z"></path>
<path fill="#fcf9f9" style="fill: var(--color1, #fcf9f9)" opacity="0.1" d="M3.391 28.54h-1.123v-1.142h1.123v1.142z"></path>
<path fill="#fcf9f9" style="fill: var(--color1, #fcf9f9)" opacity="0.1" d="M2.268 28.54h-1.123v-1.142h1.123v1.142z"></path>
<path fill="#fcf9f9" style="fill: var(--color1, #fcf9f9)" opacity="0.1" d="M19.11 27.398h-1.123v-1.142h1.123v1.142z"></path>
<path fill="#fcf9f9" style="fill: var(--color1, #fcf9f9)" opacity="0.1" d="M16.864 27.398h-1.123v-1.142h1.123v1.142z"></path>
<path fill="#fcf9f9" style="fill: var(--color1, #fcf9f9)" opacity="0.1" d="M13.496 27.398h-1.123v-1.142h1.123v1.142z"></path>
<path fill="#fcf9f9" style="fill: var(--color1, #fcf9f9)" opacity="0.1" d="M12.373 27.398h-1.123v-1.142h1.123v1.142z"></path>
<path fill="#fcf9f9" style="fill: var(--color1, #fcf9f9)" opacity="0.1" d="M11.25 27.398h-1.123v-1.142h1.123v1.142z"></path>
<path fill="#fcf9f9" style="fill: var(--color1, #fcf9f9)" opacity="0.1" d="M3.391 27.398h-1.123v-1.142h1.123v1.142z"></path>
<path fill="#fcf9f9" style="fill: var(--color1, #fcf9f9)" opacity="0.1" d="M2.268 27.398h-1.123v-1.142h1.123v1.142z"></path>
<path fill="#fcf9f9" style="fill: var(--color1, #fcf9f9)" opacity="0.1" d="M1.145 27.398h-1.123v-1.142h1.123v1.142z"></path>
<path fill="#fcf9f9" style="fill: var(--color1, #fcf9f9)" opacity="0.1" d="M14.619 26.256h-1.123v-1.142h1.123v1.142z"></path>
<path fill="#fcf9f9" style="fill: var(--color1, #fcf9f9)" opacity="0.1" d="M13.496 26.256h-1.123v-1.142h1.123v1.142z"></path>
<path fill="#fcf9f9" style="fill: var(--color1, #fcf9f9)" opacity="0.1" d="M12.373 26.256h-1.123v-1.142h1.123v1.142z"></path>
<path fill="#fcf9f9" style="fill: var(--color1, #fcf9f9)" opacity="0.1" d="M2.268 26.256h-1.123v-1.142h1.123v1.142z"></path>
<path fill="#fcf9f9" style="fill: var(--color1, #fcf9f9)" opacity="0.1" d="M1.145 26.256h-1.123v-1.142h1.123v1.142z"></path>
<path fill="#fcf9f9" style="fill: var(--color1, #fcf9f9)" opacity="0.1" d="M19.11 25.115h-1.123v-1.142h1.123v1.142z"></path>
<path fill="#fcf9f9" style="fill: var(--color1, #fcf9f9)" opacity="0.1" d="M16.864 25.115h-1.123v-1.142h1.123v1.142z"></path>
<path fill="#fcf9f9" style="fill: var(--color1, #fcf9f9)" opacity="0.1" d="M6.759 25.115h-1.123v-1.142h1.123v1.142z"></path>
<path fill="#fcf9f9" style="fill: var(--color1, #fcf9f9)" opacity="0.1" d="M1.145 25.115h-1.123v-1.142h1.123v1.142z"></path>
<path fill="#fcf9f9" style="fill: var(--color1, #fcf9f9)" opacity="0.1" d="M20.232 23.973h-1.123v-1.142h1.123v1.142z"></path>
<path fill="#fcf9f9" style="fill: var(--color1, #fcf9f9)" opacity="0.1" d="M19.11 23.973h-1.123v-1.142h1.123v1.142z"></path>
<path fill="#fcf9f9" style="fill: var(--color1, #fcf9f9)" opacity="0.1" d="M16.864 23.973h-1.123v-1.142h1.123v1.142z"></path>
<path fill="#fcf9f9" style="fill: var(--color1, #fcf9f9)" opacity="0.1" d="M15.741 23.973h-1.123v-1.142h1.123v1.142z"></path>
<path fill="#fcf9f9" style="fill: var(--color1, #fcf9f9)" opacity="0.1" d="M7.882 23.973h-1.123v-1.142h1.123v1.142z"></path>
<path fill="#fcf9f9" style="fill: var(--color1, #fcf9f9)" opacity="0.1" d="M6.759 23.973h-1.123v-1.142h1.123v1.142z"></path>
<path fill="#fcf9f9" style="fill: var(--color1, #fcf9f9)" opacity="0.1" d="M20.232 22.832h-1.123v-1.142h1.123v1.142z"></path>
<path fill="#fcf9f9" style="fill: var(--color1, #fcf9f9)" opacity="0.1" d="M15.741 22.832h-1.123v-1.142h1.123v1.142z"></path>
<path fill="#fcf9f9" style="fill: var(--color1, #fcf9f9)" opacity="0.1" d="M14.619 22.832h-1.123v-1.142h1.123v1.142z"></path>
<path fill="#fcf9f9" style="fill: var(--color1, #fcf9f9)" opacity="0.1" d="M9.005 22.832h-1.123v-1.142h1.123v1.142z"></path>
<path fill="#fcf9f9" style="fill: var(--color1, #fcf9f9)" opacity="0.1" d="M7.882 22.832h-1.123v-1.142h1.123v1.142z"></path>
<path fill="#fcf9f9" style="fill: var(--color1, #fcf9f9)" opacity="0.1" d="M6.759 22.832h-1.123v-1.142h1.123v1.142z"></path>
<path fill="#fcf9f9" style="fill: var(--color1, #fcf9f9)" opacity="0.1" d="M14.619 21.69h-1.123v-1.142h1.123v1.142z"></path>
<path fill="#fcf9f9" style="fill: var(--color1, #fcf9f9)" opacity="0.1" d="M13.496 21.69h-1.123v-1.142h1.123v1.142z"></path>
<path fill="#fcf9f9" style="fill: var(--color1, #fcf9f9)" opacity="0.1" d="M9.005 21.69h-1.123v-1.142h1.123v1.142z"></path>
<path fill="#fcf9f9" style="fill: var(--color1, #fcf9f9)" opacity="0.1" d="M7.882 21.69h-1.123v-1.142h1.123v1.142z"></path>
<path fill="#fcf9f9" style="fill: var(--color1, #fcf9f9)" opacity="0.1" d="M13.496 20.548h-1.123v-1.142h1.123v1.142z"></path>
<path fill="#fcf9f9" style="fill: var(--color1, #fcf9f9)" opacity="0.1" d="M12.373 20.548h-1.123v-1.142h1.123v1.142z"></path>
<path fill="#fcf9f9" style="fill: var(--color1, #fcf9f9)" opacity="0.1" d="M9.005 20.548h-1.123v-1.142h1.123v1.142z"></path>
<path fill="#fcf9f9" style="fill: var(--color1, #fcf9f9)" opacity="0.1" d="M5.636 20.548h-1.123v-1.142h1.123v1.142z"></path>
<path fill="#fcf9f9" style="fill: var(--color1, #fcf9f9)" opacity="0.1" d="M4.513 20.548h-1.123v-1.142h1.123v1.142z"></path>
<path fill="#fcf9f9" style="fill: var(--color1, #fcf9f9)" opacity="0.1" d="M3.391 20.548h-1.123v-1.142h1.123v1.142z"></path>
<path fill="#fcf9f9" style="fill: var(--color1, #fcf9f9)" opacity="0.1" d="M12.373 19.407h-1.123v-1.142h1.123v1.142z"></path>
<path fill="#fcf9f9" style="fill: var(--color1, #fcf9f9)" opacity="0.1" d="M11.25 19.407h-1.123v-1.142h1.123v1.142z"></path>
<path fill="#fcf9f9" style="fill: var(--color1, #fcf9f9)" opacity="0.1" d="M6.759 19.407h-1.123v-1.142h1.123v1.142z"></path>
<path fill="#fcf9f9" style="fill: var(--color1, #fcf9f9)" opacity="0.1" d="M5.636 19.407h-1.123v-1.142h1.123v1.142z"></path>
<path fill="#fcf9f9" style="fill: var(--color1, #fcf9f9)" opacity="0.1" d="M4.513 19.407h-1.123v-1.142h1.123v1.142z"></path>
<path fill="#fcf9f9" style="fill: var(--color1, #fcf9f9)" opacity="0.1" d="M17.987 18.265h-1.123v-1.142h1.123v1.142z"></path>
<path fill="#fcf9f9" style="fill: var(--color1, #fcf9f9)" opacity="0.1" d="M11.25 18.265h-1.123v-1.142h1.123v1.142z"></path>
<path fill="#fcf9f9" style="fill: var(--color1, #fcf9f9)" opacity="0.1" d="M10.127 18.265h-1.123v-1.142h1.123v1.142z"></path>
<path fill="#fcf9f9" style="fill: var(--color1, #fcf9f9)" opacity="0.1" d="M7.882 18.265h-1.123v-1.142h1.123v1.142z"></path>
<path fill="#fcf9f9" style="fill: var(--color1, #fcf9f9)" opacity="0.1" d="M6.759 18.265h-1.123v-1.142h1.123v1.142z"></path>
<path fill="#fcf9f9" style="fill: var(--color1, #fcf9f9)" opacity="0.1" d="M5.636 18.265h-1.123v-1.142h1.123v1.142z"></path>
<path fill="#fcf9f9" style="fill: var(--color1, #fcf9f9)" opacity="0.1" d="M1.123 17.124h-1.123v-1.142h1.123v1.142z"></path>
<path fill="#fcf9f9" style="fill: var(--color1, #fcf9f9)" opacity="0.1" d="M2.268 17.124h-1.123v-1.142h1.123v1.142z"></path>
<path fill="#fcf9f9" style="fill: var(--color1, #fcf9f9)" opacity="0.1" d="M1.123 18.265h-1.123v-1.142h1.123v1.142z"></path>
<path fill="#fcf9f9" style="fill: var(--color1, #fcf9f9)" opacity="0.1" d="M1.123 15.982h-1.123v-1.142h1.123v1.142z"></path>
<path fill="#fcf9f9" style="fill: var(--color1, #fcf9f9)" opacity="0.1" d="M19.11 17.124h-1.123v-1.142h1.123v1.142z"></path>
<path fill="#fcf9f9" style="fill: var(--color1, #fcf9f9)" opacity="0.1" d="M17.987 17.124h-1.123v-1.142h1.123v1.142z"></path>
<path fill="#fcf9f9" style="fill: var(--color1, #fcf9f9)" opacity="0.1" d="M16.864 17.124h-1.123v-1.142h1.123v1.142z"></path>
<path fill="#fcf9f9" style="fill: var(--color1, #fcf9f9)" opacity="0.1" d="M17.987 15.982h-1.123v-1.142h1.123v1.142z"></path>
<path fill="#fcf9f9" style="fill: var(--color1, #fcf9f9)" opacity="0.1" d="M11.25 15.982h-1.123v-1.142h1.123v1.142z"></path>
<path fill="#fcf9f9" style="fill: var(--color1, #fcf9f9)" opacity="0.1" d="M10.127 15.982h-1.123v-1.142h1.123v1.142z"></path>
<path fill="#fcf9f9" style="fill: var(--color1, #fcf9f9)" opacity="0.1" d="M7.882 15.982h-1.123v-1.142h1.123v1.142z"></path>
<path fill="#fcf9f9" style="fill: var(--color1, #fcf9f9)" opacity="0.1" d="M6.759 15.982h-1.123v-1.142h1.123v1.142z"></path>
<path fill="#fcf9f9" style="fill: var(--color1, #fcf9f9)" opacity="0.1" d="M5.636 15.982h-1.123v-1.142h1.123v1.142z"></path>
<path fill="#fcf9f9" style="fill: var(--color1, #fcf9f9)" opacity="0.1" d="M12.373 14.841h-1.123v-1.142h1.123v1.142z"></path>
<path fill="#fcf9f9" style="fill: var(--color1, #fcf9f9)" opacity="0.1" d="M11.25 14.841h-1.123v-1.142h1.123v1.142z"></path>
<path fill="#fcf9f9" style="fill: var(--color1, #fcf9f9)" opacity="0.1" d="M6.759 14.841h-1.123v-1.142h1.123v1.142z"></path>
<path fill="#fcf9f9" style="fill: var(--color1, #fcf9f9)" opacity="0.1" d="M5.636 14.841h-1.123v-1.142h1.123v1.142z"></path>
<path fill="#fcf9f9" style="fill: var(--color1, #fcf9f9)" opacity="0.1" d="M4.513 14.841h-1.123v-1.142h1.123v1.142z"></path>
<path fill="#fcf9f9" style="fill: var(--color1, #fcf9f9)" opacity="0.1" d="M13.496 13.699h-1.123v-1.142h1.123v1.142z"></path>
<path fill="#fcf9f9" style="fill: var(--color1, #fcf9f9)" opacity="0.1" d="M12.373 13.699h-1.123v-1.142h1.123v1.142z"></path>
<path fill="#fcf9f9" style="fill: var(--color1, #fcf9f9)" opacity="0.1" d="M9.005 13.699h-1.123v-1.142h1.123v1.142z"></path>
<path fill="#fcf9f9" style="fill: var(--color1, #fcf9f9)" opacity="0.1" d="M5.636 13.699h-1.123v-1.142h1.123v1.142z"></path>
<path fill="#fcf9f9" style="fill: var(--color1, #fcf9f9)" opacity="0.1" d="M4.513 13.699h-1.123v-1.142h1.123v1.142z"></path>
<path fill="#fcf9f9" style="fill: var(--color1, #fcf9f9)" opacity="0.1" d="M3.391 13.699h-1.123v-1.142h1.123v1.142z"></path>
<path fill="#fcf9f9" style="fill: var(--color1, #fcf9f9)" opacity="0.1" d="M14.619 12.557h-1.123v-1.142h1.123v1.142z"></path>
<path fill="#fcf9f9" style="fill: var(--color1, #fcf9f9)" opacity="0.1" d="M13.496 12.557h-1.123v-1.142h1.123v1.142z"></path>
<path fill="#fcf9f9" style="fill: var(--color1, #fcf9f9)" opacity="0.1" d="M9.005 12.557h-1.123v-1.142h1.123v1.142z"></path>
<path fill="#fcf9f9" style="fill: var(--color1, #fcf9f9)" opacity="0.1" d="M7.882 12.557h-1.123v-1.142h1.123v1.142z"></path>
<path fill="#fcf9f9" style="fill: var(--color1, #fcf9f9)" opacity="0.1" d="M20.232 11.416h-1.123v-1.142h1.123v1.142z"></path>
<path fill="#fcf9f9" style="fill: var(--color1, #fcf9f9)" opacity="0.1" d="M15.741 11.416h-1.123v-1.142h1.123v1.142z"></path>
<path fill="#fcf9f9" style="fill: var(--color1, #fcf9f9)" opacity="0.1" d="M14.619 11.416h-1.123v-1.142h1.123v1.142z"></path>
<path fill="#fcf9f9" style="fill: var(--color1, #fcf9f9)" opacity="0.1" d="M9.005 11.416h-1.123v-1.142h1.123v1.142z"></path>
<path fill="#fcf9f9" style="fill: var(--color1, #fcf9f9)" opacity="0.1" d="M7.882 11.416h-1.123v-1.142h1.123v1.142z"></path>
<path fill="#fcf9f9" style="fill: var(--color1, #fcf9f9)" opacity="0.1" d="M6.759 11.416h-1.123v-1.142h1.123v1.142z"></path>
<path fill="#fcf9f9" style="fill: var(--color1, #fcf9f9)" opacity="0.1" d="M20.232 10.274h-1.123v-1.142h1.123v1.142z"></path>
<path fill="#fcf9f9" style="fill: var(--color1, #fcf9f9)" opacity="0.1" d="M19.11 10.274h-1.123v-1.142h1.123v1.142z"></path>
<path fill="#fcf9f9" style="fill: var(--color1, #fcf9f9)" opacity="0.1" d="M16.864 10.274h-1.123v-1.142h1.123v1.142z"></path>
<path fill="#fcf9f9" style="fill: var(--color1, #fcf9f9)" opacity="0.1" d="M15.741 10.274h-1.123v-1.142h1.123v1.142z"></path>
<path fill="#fcf9f9" style="fill: var(--color1, #fcf9f9)" opacity="0.1" d="M7.882 10.274h-1.123v-1.142h1.123v1.142z"></path>
<path fill="#fcf9f9" style="fill: var(--color1, #fcf9f9)" opacity="0.1" d="M6.759 10.274h-1.123v-1.142h1.123v1.142z"></path>
<path fill="#fcf9f9" style="fill: var(--color1, #fcf9f9)" opacity="0.1" d="M19.11 9.133h-1.123v-1.142h1.123v1.142z"></path>
<path fill="#fcf9f9" style="fill: var(--color1, #fcf9f9)" opacity="0.1" d="M16.864 9.133h-1.123v-1.142h1.123v1.142z"></path>
<path fill="#fcf9f9" style="fill: var(--color1, #fcf9f9)" opacity="0.1" d="M6.759 9.133h-1.123v-1.142h1.123v1.142z"></path>
<path fill="#fcf9f9" style="fill: var(--color1, #fcf9f9)" opacity="0.1" d="M1.145 7.991h-1.123v-1.142h1.123v1.142z"></path>
<path fill="#fcf9f9" style="fill: var(--color1, #fcf9f9)" opacity="0.1" d="M14.619 6.849h-1.123v-1.142h1.123v1.142z"></path>
<path fill="#fcf9f9" style="fill: var(--color1, #fcf9f9)" opacity="0.1" d="M13.496 6.849h-1.123v-1.142h1.123v1.142z"></path>
<path fill="#fcf9f9" style="fill: var(--color1, #fcf9f9)" opacity="0.1" d="M12.373 6.849h-1.123v-1.142h1.123v1.142z"></path>
<path fill="#fcf9f9" style="fill: var(--color1, #fcf9f9)" opacity="0.1" d="M2.268 6.849h-1.123v-1.142h1.123v1.142z"></path>
<path fill="#fcf9f9" style="fill: var(--color1, #fcf9f9)" opacity="0.1" d="M1.145 6.849h-1.123v-1.142h1.123v1.142z"></path>
<path fill="#fcf9f9" style="fill: var(--color1, #fcf9f9)" opacity="0.1" d="M19.11 5.708h-1.123v-1.142h1.123v1.142z"></path>
<path fill="#fcf9f9" style="fill: var(--color1, #fcf9f9)" opacity="0.1" d="M16.864 5.708h-1.123v-1.142h1.123v1.142z"></path>
<path fill="#fcf9f9" style="fill: var(--color1, #fcf9f9)" opacity="0.1" d="M13.496 5.708h-1.123v-1.142h1.123v1.142z"></path>
<path fill="#fcf9f9" style="fill: var(--color1, #fcf9f9)" opacity="0.1" d="M12.373 5.708h-1.123v-1.142h1.123v1.142z"></path>
<path fill="#fcf9f9" style="fill: var(--color1, #fcf9f9)" opacity="0.1" d="M11.25 5.708h-1.123v-1.142h1.123v1.142z"></path>
<path fill="#fcf9f9" style="fill: var(--color1, #fcf9f9)" opacity="0.1" d="M3.391 5.708h-1.123v-1.142h1.123v1.142z"></path>
<path fill="#fcf9f9" style="fill: var(--color1, #fcf9f9)" opacity="0.1" d="M2.268 5.708h-1.123v-1.142h1.123v1.142z"></path>
<path fill="#fcf9f9" style="fill: var(--color1, #fcf9f9)" opacity="0.1" d="M1.145 5.708h-1.123v-1.142h1.123v1.142z"></path>
<path fill="#fcf9f9" style="fill: var(--color1, #fcf9f9)" opacity="0.1" d="M20.232 4.566h-1.123v-1.142h1.123v1.142z"></path>
<path fill="#fcf9f9" style="fill: var(--color1, #fcf9f9)" opacity="0.1" d="M19.11 4.566h-1.123v-1.142h1.123v1.142z"></path>
<path fill="#fcf9f9" style="fill: var(--color1, #fcf9f9)" opacity="0.1" d="M16.864 4.566h-1.123v-1.142h1.123v1.142z"></path>
<path fill="#fcf9f9" style="fill: var(--color1, #fcf9f9)" opacity="0.1" d="M15.741 4.566h-1.123v-1.142h1.123v1.142z"></path>
<path fill="#fcf9f9" style="fill: var(--color1, #fcf9f9)" opacity="0.1" d="M12.373 4.566h-1.123v-1.142h1.123v1.142z"></path>
<path fill="#fcf9f9" style="fill: var(--color1, #fcf9f9)" opacity="0.1" d="M11.25 4.566h-1.123v-1.142h1.123v1.142z"></path>
<path fill="#fcf9f9" style="fill: var(--color1, #fcf9f9)" opacity="0.1" d="M10.127 4.566h-1.123v-1.142h1.123v1.142z"></path>
<path fill="#fcf9f9" style="fill: var(--color1, #fcf9f9)" opacity="0.1" d="M4.513 4.566h-1.123v-1.142h1.123v1.142z"></path>
<path fill="#fcf9f9" style="fill: var(--color1, #fcf9f9)" opacity="0.1" d="M3.391 4.566h-1.123v-1.142h1.123v1.142z"></path>
<path fill="#fcf9f9" style="fill: var(--color1, #fcf9f9)" opacity="0.1" d="M2.268 4.566h-1.123v-1.142h1.123v1.142z"></path>
<path fill="#fcf9f9" style="fill: var(--color1, #fcf9f9)" opacity="0.1" d="M20.232 3.425h-1.123v-1.142h1.123v1.142z"></path>
<path fill="#fcf9f9" style="fill: var(--color1, #fcf9f9)" opacity="0.1" d="M19.11 3.425h-1.123v-1.142h1.123v1.142z"></path>
<path fill="#fcf9f9" style="fill: var(--color1, #fcf9f9)" opacity="0.1" d="M16.864 3.425h-1.123v-1.142h1.123v1.142z"></path>
<path fill="#fcf9f9" style="fill: var(--color1, #fcf9f9)" opacity="0.1" d="M15.741 3.425h-1.123v-1.142h1.123v1.142z"></path>
<path fill="#fcf9f9" style="fill: var(--color1, #fcf9f9)" opacity="0.1" d="M14.619 3.425h-1.123v-1.142h1.123v1.142z"></path>
<path fill="#fcf9f9" style="fill: var(--color1, #fcf9f9)" opacity="0.1" d="M5.636 3.425h-1.123v-1.142h1.123v1.142z"></path>
<path fill="#fcf9f9" style="fill: var(--color1, #fcf9f9)" opacity="0.1" d="M4.513 3.425h-1.123v-1.142h1.123v1.142z"></path>
<path fill="#fcf9f9" style="fill: var(--color1, #fcf9f9)" opacity="0.1" d="M3.391 3.425h-1.123v-1.142h1.123v1.142z"></path>
<path fill="#fcf9f9" style="fill: var(--color1, #fcf9f9)" opacity="0.1" d="M20.232 2.283h-1.123v-1.142h1.123v1.142z"></path>
<path fill="#fcf9f9" style="fill: var(--color1, #fcf9f9)" opacity="0.1" d="M15.741 2.283h-1.123v-1.142h1.123v1.142z"></path>
<path fill="#fcf9f9" style="fill: var(--color1, #fcf9f9)" opacity="0.1" d="M14.619 2.283h-1.123v-1.142h1.123v1.142z"></path>
<path fill="#fcf9f9" style="fill: var(--color1, #fcf9f9)" opacity="0.1" d="M6.759 2.283h-1.123v-1.142h1.123v1.142z"></path>
<path fill="#fcf9f9" style="fill: var(--color1, #fcf9f9)" opacity="0.1" d="M5.636 2.283h-1.123v-1.142h1.123v1.142z"></path>
<path fill="#fcf9f9" style="fill: var(--color1, #fcf9f9)" opacity="0.1" d="M4.513 2.283h-1.123v-1.142h1.123v1.142z"></path>
<path fill="#fcf9f9" style="fill: var(--color1, #fcf9f9)" opacity="0.1" d="M14.619 1.142h-1.123v-1.142h1.123v1.142z"></path>
<path fill="#fcf9f9" style="fill: var(--color1, #fcf9f9)" opacity="0.1" d="M7.882 1.142h-1.123v-1.142h1.123v1.142z"></path>
<path fill="#fcf9f9" style="fill: var(--color1, #fcf9f9)" opacity="0.1" d="M6.759 1.142h-1.123v-1.142h1.123v1.142z"></path>
<path fill="#fcf9f9" style="fill: var(--color1, #fcf9f9)" opacity="0.1" d="M5.636 1.142h-1.123v-1.142h1.123v1.142z"></path>
<path fill="#fcf9f9" style="fill: var(--color1, #fcf9f9)" opacity="0.1" d="M1.145 1.142h-1.123v-1.142h1.123v1.142z"></path>
</symbol>


</defs>
</svg>
