<svg aria-hidden="true" style="position: absolute; width: 0; height: 0; overflow: hidden;" version="1.1" xmlns="http://www.w3.org/2000/svg" xmlns:xlink="http://www.w3.org/1999/xlink">
<defs>

<symbol id="icon-untitled" viewBox="0 0 48 32">
<path fill="#ecd979" style="fill: var(--color1, #ecd979)" d="M41.648 18.935c-0.261-1.955-0.429-3.7-0.506-5.235-0.033-1.56 0.026-2.91 0.178-4.050l-37.94 21.905-1.795-3.109 37.94-21.905c-1.092-0.488-2.305-1.137-3.639-1.945-1.291-0.834-2.704-1.827-4.238-2.981l2.278-1.315c4.813 2.024 9.215 3.036 13.206 3.035l0.769 1.332c-2.025 3.406-3.35 7.724-3.975 12.954l-2.278 1.315z"></path>
</symbol>

<symbol id="icon-elements_about" viewBox="0 0 20 32">
<path fill="#fcf9f9" style="fill: var(--color1, #fcf9f9)" opacity="0.1" d="M14.619 31.964h-1.123v-1.142h1.123v1.142z"></path>
<path fill="#fcf9f9" style="fill: var(--color1, #fcf9f9)" opacity="0.1" d="M7.882 31.964h-1.123v-1.142h1.123v1.142z"></path>
<path fill="#fcf9f9" style="fill: var(--color1, #fcf9f9)" opacity="0.1" d="M6.759 31.964h-1.123v-1.142h1.123v1.142z"></path>
<path fill="#fcf9f9" style="fill: var(--color1, #fcf9f9)" opacity="0.1" d="M5.636 31.964h-1.123v-1.142h1.123v1.142z"></path>
<path fill="#fcf9f9" style="fill: var(--color1, #fcf9f9)" opacity="0.1" d="M1.145 31.964h-1.123v-1.142h1.123v1.142z"></path>
<path fill="#fcf9f9" style="fill: var(--color1, #fcf9f9)" opacity="0.1" d="M20.232 30.823h-1.123v-1.142h1.123v1.142z"></path>
<path fill="#fcf9f9" style="fill: var(--color1, #fcf9f9)" opacity="0.1" d="M15.741 30.823h-1.123v-1.142h1.123v1.142z"></path>
<path fill="#fcf9f9" style="fill: var(--color1, #fcf9f9)" opacity="0.1" d="M14.619 30.823h-1.123v-1.142h1.123v1.142z"></path>
<path fill="#fcf9f9" style="fill: var(--color1, #fcf9f9)" opacity="0.1" d="M6.759 30.823h-1.123v-1.142h1.123v1.142z"></path>
<path fill="#fcf9f9" style="fill: var(--color1, #fcf9f9)" opacity="0.1" d="M5.636 30.823h-1.123v-1.142h1.123v1.142z"></path>
<path fill="#fcf9f9" style="fill: var(--color1, #fcf9f9)" opacity="0.1" d="M4.513 30.823h-1.123v-1.142h1.123v1.142z"></path>
<path fill="#fcf9f9" style="fill: var(--color1, #fcf9f9)" opacity="0.1" d="M20.232 29.681h-1.123v-1.142h1.123v1.142z"></path>
<path fill="#fcf9f9" style="fill: var(--color1, #fcf9f9)" opacity="0.1" d="M19.11 29.681h-1.123v-1.142h1.123v1.142z"></path>
<path fill="#fcf9f9" style="fill: var(--color1, #fcf9f9)" opacity="0.1" d="M16.864 29.681h-1.123v-1.142h1.123v1.142z"></path>
<path fill="#fcf9f9" style="fill: var(--color1, #fcf9f9)" opacity="0.1" d="M15.741 29.681h-1.123v-1.142h1.123v1.142z"></path>
<path fill="#fcf9f9" style="fill: var(--color1, #fcf9f9)" opacity="0.1" d="M14.619 29.681h-1.123v-1.142h1.123v1.142z"></path>
<path fill="#fcf9f9" style="fill: var(--color1, #fcf9f9)" opacity="0.1" d="M5.636 29.681h-1.123v-1.142h1.123v1.142z"></path>
<path fill="#fcf9f9" style="fill: var(--color1, #fcf9f9)" opacity="0.1" d="M4.513 29.681h-1.123v-1.142h1.123v1.142z"></path>
<path fill="#fcf9f9" style="fill: var(--color1, #fcf9f9)" opacity="0.1" d="M3.391 29.681h-1.123v-1.142h1.123v1.142z"></path>
<path fill="#fcf9f9" style="fill: var(--color1, #fcf9f9)" opacity="0.1" d="M20.232 28.54h-1.123v-1.142h1.123v1.142z"></path>
<path fill="#fcf9f9" style="fill: var(--color1, #fcf9f9)" opacity="0.1" d="M19.11 28.54h-1.123v-1.142h1.123v1.142z"></path>
<path fill="#fcf9f9" style="fill: var(--color1, #fcf9f9)" opacity="0.1" d="M16.864 28.54h-1.123v-1.142h1.123v1.142z"></path>
<path fill="#fcf9f9" style="fill: var(--color1, #fcf9f9)" opacity="0.1" d="M15.741 28.54h-1.123v-1.142h1.123v1.142z"></path>
<path fill="#fcf9f9" style="fill: var(--color1, #fcf9f9)" opacity="0.1" d="M12.373 28.54h-1.123v-1.142h1.123v1.142z"></path>
<path fill="#fcf9f9" style="fill: var(--color1, #fcf9f9)" opacity="0.1" d="M11.25 28.54h-1.123v-1.142h1.123v1.142z"></path>
<path fill="#fcf9f9" style="fill: var(--color1, #fcf9f9)" opacity="0.1" d="M10.127 28.54h-1.123v-1.142h1.123v1.142z"></path>
<path fill="#fcf9f9" style="fill: var(--color1, #fcf9f9)" opacity="0.1" d="M4.513 28.54h-1.123v-1.142h1.123v1.142z"></path>
<path fill="#fcf9f9" style="fill: var(--color1, #fcf9f9)" opacity="0.1" d="M3.391 28.54h-1.123v-1.142h1.123v1.142z"></path>
<path fill="#fcf9f9" style="fill: var(--color1, #fcf9f9)" opacity="0.1" d="M2.268 28.54h-1.123v-1.142h1.123v1.142z"></path>
<path fill="#fcf9f9" style="fill: var(--color1, #fcf9f9)" opacity="0.1" d="M19.11 27.398h-1.123v-1.142h1.123v1.142z"></path>
<path fill="#fcf9f9" style="fill: var(--color1, #fcf9f9)" opacity="0.1" d="M16.864 27.398h-1.123v-1.142h1.123v1.142z"></path>
<path fill="#fcf9f9" style="fill: var(--color1, #fcf9f9)" opacity="0.1" d="M13.496 27.398h-1.123v-1.142h1.123v1.142z"></path>
<path fill="#fcf9f9" style="fill: var(--color1, #fcf9f9)" opacity="0.1" d="M12.373 27.398h-1.123v-1.142h1.123v1.142z"></path>
<path fill="#fcf9f9" style="fill: var(--color1, #fcf9f9)" opacity="0.1" d="M11.25 27.398h-1.123v-1.142h1.123v1.142z"></path>
<path fill="#fcf9f9" style="fill: var(--color1, #fcf9f9)" opacity="0.1" d="M3.391 27.398h-1.123v-1.142h1.123v1.142z"></path>
<path fill="#fcf9f9" style="fill: var(--color1, #fcf9f9)" opacity="0.1" d="M2.268 27.398h-1.123v-1.142h1.123v1.142z"></path>
<path fill="#fcf9f9" style="fill: var(--color1, #fcf9f9)" opacity="0.1" d="M1.145 27.398h-1.123v-1.142h1.123v1.142z"></path>
<path fill="#fcf9f9" style="fill: var(--color1, #fcf9f9)" opacity="0.1" d="M14.619 26.256h-1.123v-1.142h1.123v1.142z"></path>
<path fill="#fcf9f9" style="fill: var(--color1, #fcf9f9)" opacity="0.1" d="M13.496 26.256h-1.123v-1.142h1.123v1.142z"></path>
<path fill="#fcf9f9" style="fill: var(--color1, #fcf9f9)" opacity="0.1" d="M12.373 26.256h-1.123v-1.142h1.123v1.142z"></path>
<path fill="#fcf9f9" style="fill: var(--color1, #fcf9f9)" opacity="0.1" d="M2.268 26.256h-1.123v-1.142h1.123v1.142z"></path>
<path fill="#fcf9f9" style="fill: var(--color1, #fcf9f9)" opacity="0.1" d="M1.145 26.256h-1.123v-1.142h1.123v1.142z"></path>
<path fill="#fcf9f9" style="fill: var(--color1, #fcf9f9)" opacity="0.1" d="M19.11 25.115h-1.123v-1.142h1.123v1.142z"></path>
<path fill="#fcf9f9" style="fill: var(--color1, #fcf9f9)" opacity="0.1" d="M16.864 25.115h-1.123v-1.142h1.123v1.142z"></path>
<path fill="#fcf9f9" style="fill: var(--color1, #fcf9f9)" opacity="0.1" d="M6.759 25.115h-1.123v-1.142h1.123v1.142z"></path>
<path fill="#fcf9f9" style="fill: var(--color1, #fcf9f9)" opacity="0.1" d="M1.145 25.115h-1.123v-1.142h1.123v1.142z"></path>
<path fill="#fcf9f9" style="fill: var(--color1, #fcf9f9)" opacity="0.1" d="M20.232 23.973h-1.123v-1.142h1.123v1.142z"></path>
<path fill="#fcf9f9" style="fill: var(--color1, #fcf9f9)" opacity="0.1" d="M19.11 23.973h-1.123v-1.142h1.123v1.142z"></path>
<path fill="#fcf9f9" style="fill: var(--color1, #fcf9f9)" opacity="0.1" d="M16.864 23.973h-1.123v-1.142h1.123v1.142z"></path>
<path fill="#fcf9f9" style="fill: var(--color1, #fcf9f9)" opacity="0.1" d="M15.741 23.973h-1.123v-1.142h1.123v1.142z"></path>
<path fill="#fcf9f9" style="fill: var(--color1, #fcf9f9)" opacity="0.1" d="M7.882 23.973h-1.123v-1.142h1.123v1.142z"></path>
<path fill="#fcf9f9" style="fill: var(--color1, #fcf9f9)" opacity="0.1" d="M6.759 23.973h-1.123v-1.142h1.123v1.142z"></path>
<path fill="#fcf9f9" style="fill: var(--color1, #fcf9f9)" opacity="0.1" d="M20.232 22.832h-1.123v-1.142h1.123v1.142z"></path>
<path fill="#fcf9f9" style="fill: var(--color1, #fcf9f9)" opacity="0.1" d="M15.741 22.832h-1.123v-1.142h1.123v1.142z"></path>
<path fill="#fcf9f9" style="fill: var(--color1, #fcf9f9)" opacity="0.1" d="M14.619 22.832h-1.123v-1.142h1.123v1.142z"></path>
<path fill="#fcf9f9" style="fill: var(--color1, #fcf9f9)" opacity="0.1" d="M9.005 22.832h-1.123v-1.142h1.123v1.142z"></path>
<path fill="#fcf9f9" style="fill: var(--color1, #fcf9f9)" opacity="0.1" d="M7.882 22.832h-1.123v-1.142h1.123v1.142z"></path>
<path fill="#fcf9f9" style="fill: var(--color1, #fcf9f9)" opacity="0.1" d="M6.759 22.832h-1.123v-1.142h1.123v1.142z"></path>
<path fill="#fcf9f9" style="fill: var(--color1, #fcf9f9)" opacity="0.1" d="M14.619 21.69h-1.123v-1.142h1.123v1.142z"></path>
<path fill="#fcf9f9" style="fill: var(--color1, #fcf9f9)" opacity="0.1" d="M13.496 21.69h-1.123v-1.142h1.123v1.142z"></path>
<path fill="#fcf9f9" style="fill: var(--color1, #fcf9f9)" opacity="0.1" d="M9.005 21.69h-1.123v-1.142h1.123v1.142z"></path>
<path fill="#fcf9f9" style="fill: var(--color1, #fcf9f9)" opacity="0.1" d="M7.882 21.69h-1.123v-1.142h1.123v1.142z"></path>
<path fill="#fcf9f9" style="fill: var(--color1, #fcf9f9)" opacity="0.1" d="M13.496 20.548h-1.123v-1.142h1.123v1.142z"></path>
<path fill="#fcf9f9" style="fill: var(--color1, #fcf9f9)" opacity="0.1" d="M12.373 20.548h-1.123v-1.142h1.123v1.142z"></path>
<path fill="#fcf9f9" style="fill: var(--color1, #fcf9f9)" opacity="0.1" d="M9.005 20.548h-1.123v-1.142h1.123v1.142z"></path>
<path fill="#fcf9f9" style="fill: var(--color1, #fcf9f9)" opacity="0.1" d="M5.636 20.548h-1.123v-1.142h1.123v1.142z"></path>
<path fill="#fcf9f9" style="fill: var(--color1, #fcf9f9)" opacity="0.1" d="M4.513 20.548h-1.123v-1.142h1.123v1.142z"></path>
<path fill="#fcf9f9" style="fill: var(--color1, #fcf9f9)" opacity="0.1" d="M3.391 20.548h-1.123v-1.142h1.123v1.142z"></path>
<path fill="#fcf9f9" style="fill: var(--color1, #fcf9f9)" opacity="0.1" d="M12.373 19.407h-1.123v-1.142h1.123v1.142z"></path>
<path fill="#fcf9f9" style="fill: var(--color1, #fcf9f9)" opacity="0.1" d="M11.25 19.407h-1.123v-1.142h1.123v1.142z"></path>
<path fill="#fcf9f9" style="fill: var(--color1, #fcf9f9)" opacity="0.1" d="M6.759 19.407h-1.123v-1.142h1.123v1.142z"></path>
<path fill="#fcf9f9" style="fill: var(--color1, #fcf9f9)" opacity="0.1" d="M5.636 19.407h-1.123v-1.142h1.123v1.142z"></path>
<path fill="#fcf9f9" style="fill: var(--color1, #fcf9f9)" opacity="0.1" d="M4.513 19.407h-1.123v-1.142h1.123v1.142z"></path>
<path fill="#fcf9f9" style="fill: var(--color1, #fcf9f9)" opacity="0.1" d="M17.987 18.265h-1.123v-1.142h1.123v1.142z"></path>
<path fill="#fcf9f9" style="fill: var(--color1, #fcf9f9)" opacity="0.1" d="M11.25 18.265h-1.123v-1.142h1.123v1.142z"></path>
<path fill="#fcf9f9" style="fill: var(--color1, #fcf9f9)" opacity="0.1" d="M10.127 18.265h-1.123v-1.142h1.123v1.142z"></path>
<path fill="#fcf9f9" style="fill: var(--color1, #fcf9f9)" opacity="0.1" d="M7.882 18.265h-1.123v-1.142h1.123v1.142z"></path>
<path fill="#fcf9f9" style="fill: var(--color1, #fcf9f9)" opacity="0.1" d="M6.759 18.265h-1.123v-1.142h1.123v1.142z"></path>
<path fill="#fcf9f9" style="fill: var(--color1, #fcf9f9)" opacity="0.1" d="M5.636 18.265h-1.123v-1.142h1.123v1.142z"></path>
<path fill="#fcf9f9" style="fill: var(--color1, #fcf9f9)" opacity="0.1" d="M1.123 17.124h-1.123v-1.142h1.123v1.142z"></path>
<path fill="#fcf9f9" style="fill: var(--color1, #fcf9f9)" opacity="0.1" d="M2.268 17.124h-1.123v-1.142h1.123v1.142z"></path>
<path fill="#fcf9f9" style="fill: var(--color1, #fcf9f9)" opacity="0.1" d="M1.123 18.265h-1.123v-1.142h1.123v1.142z"></path>
<path fill="#fcf9f9" style="fill: var(--color1, #fcf9f9)" opacity="0.1" d="M1.123 15.982h-1.123v-1.142h1.123v1.142z"></path>
<path fill="#fcf9f9" style="fill: var(--color1, #fcf9f9)" opacity="0.1" d="M19.11 17.124h-1.123v-1.142h1.123v1.142z"></path>
<path fill="#fcf9f9" style="fill: var(--color1, #fcf9f9)" opacity="0.1" d="M17.987 17.124h-1.123v-1.142h1.123v1.142z"></path>
<path fill="#fcf9f9" style="fill: var(--color1, #fcf9f9)" opacity="0.1" d="M16.864 17.124h-1.123v-1.142h1.123v1.142z"></path>
<path fill="#fcf9f9" style="fill: var(--color1, #fcf9f9)" opacity="0.1" d="M17.987 15.982h-1.123v-1.142h1.123v1.142z"></path>
<path fill="#fcf9f9" style="fill: var(--color1, #fcf9f9)" opacity="0.1" d="M11.25 15.982h-1.123v-1.142h1.123v1.142z"></path>
<path fill="#fcf9f9" style="fill: var(--color1, #fcf9f9)" opacity="0.1" d="M10.127 15.982h-1.123v-1.142h1.123v1.142z"></path>
<path fill="#fcf9f9" style="fill: var(--color1, #fcf9f9)" opacity="0.1" d="M7.882 15.982h-1.123v-1.142h1.123v1.142z"></path>
<path fill="#fcf9f9" style="fill: var(--color1, #fcf9f9)" opacity="0.1" d="M6.759 15.982h-1.123v-1.142h1.123v1.142z"></path>
<path fill="#fcf9f9" style="fill: var(--color1, #fcf9f9)" opacity="0.1" d="M5.636 15.982h-1.123v-1.142h1.123v1.142z"></path>
<path fill="#fcf9f9" style="fill: var(--color1, #fcf9f9)" opacity="0.1" d="M12.373 14.841h-1.123v-1.142h1.123v1.142z"></path>
<path fill="#fcf9f9" style="fill: var(--color1, #fcf9f9)" opacity="0.1" d="M11.25 14.841h-1.123v-1.142h1.123v1.142z"></path>
<path fill="#fcf9f9" style="fill: var(--color1, #fcf9f9)" opacity="0.1" d="M6.759 14.841h-1.123v-1.142h1.123v1.142z"></path>
<path fill="#fcf9f9" style="fill: var(--color1, #fcf9f9)" opacity="0.1" d="M5.636 14.841h-1.123v-1.142h1.123v1.142z"></path>
<path fill="#fcf9f9" style="fill: var(--color1, #fcf9f9)" opacity="0.1" d="M4.513 14.841h-1.123v-1.142h1.123v1.142z"></path>
<path fill="#fcf9f9" style="fill: var(--color1, #fcf9f9)" opacity="0.1" d="M13.496 13.699h-1.123v-1.142h1.123v1.142z"></path>
<path fill="#fcf9f9" style="fill: var(--color1, #fcf9f9)" opacity="0.1" d="M12.373 13.699h-1.123v-1.142h1.123v1.142z"></path>
<path fill="#fcf9f9" style="fill: var(--color1, #fcf9f9)" opacity="0.1" d="M9.005 13.699h-1.123v-1.142h1.123v1.142z"></path>
<path fill="#fcf9f9" style="fill: var(--color1, #fcf9f9)" opacity="0.1" d="M5.636 13.699h-1.123v-1.142h1.123v1.142z"></path>
<path fill="#fcf9f9" style="fill: var(--color1, #fcf9f9)" opacity="0.1" d="M4.513 13.699h-1.123v-1.142h1.123v1.142z"></path>
<path fill="#fcf9f9" style="fill: var(--color1, #fcf9f9)" opacity="0.1" d="M3.391 13.699h-1.123v-1.142h1.123v1.142z"></path>
<path fill="#fcf9f9" style="fill: var(--color1, #fcf9f9)" opacity="0.1" d="M14.619 12.557h-1.123v-1.142h1.123v1.142z"></path>
<path fill="#fcf9f9" style="fill: var(--color1, #fcf9f9)" opacity="0.1" d="M13.496 12.557h-1.123v-1.142h1.123v1.142z"></path>
<path fill="#fcf9f9" style="fill: var(--color1, #fcf9f9)" opacity="0.1" d="M9.005 12.557h-1.123v-1.142h1.123v1.142z"></path>
<path fill="#fcf9f9" style="fill: var(--color1, #fcf9f9)" opacity="0.1" d="M7.882 12.557h-1.123v-1.142h1.123v1.142z"></path>
<path fill="#fcf9f9" style="fill: var(--color1, #fcf9f9)" opacity="0.1" d="M20.232 11.416h-1.123v-1.142h1.123v1.142z"></path>
<path fill="#fcf9f9" style="fill: var(--color1, #fcf9f9)" opacity="0.1" d="M15.741 11.416h-1.123v-1.142h1.123v1.142z"></path>
<path fill="#fcf9f9" style="fill: var(--color1, #fcf9f9)" opacity="0.1" d="M14.619 11.416h-1.123v-1.142h1.123v1.142z"></path>
<path fill="#fcf9f9" style="fill: var(--color1, #fcf9f9)" opacity="0.1" d="M9.005 11.416h-1.123v-1.142h1.123v1.142z"></path>
<path fill="#fcf9f9" style="fill: var(--color1, #fcf9f9)" opacity="0.1" d="M7.882 11.416h-1.123v-1.142h1.123v1.142z"></path>
<path fill="#fcf9f9" style="fill: var(--color1, #fcf9f9)" opacity="0.1" d="M6.759 11.416h-1.123v-1.142h1.123v1.142z"></path>
<path fill="#fcf9f9" style="fill: var(--color1, #fcf9f9)" opacity="0.1" d="M20.232 10.274h-1.123v-1.142h1.123v1.142z"></path>
<path fill="#fcf9f9" style="fill: var(--color1, #fcf9f9)" opacity="0.1" d="M19.11 10.274h-1.123v-1.142h1.123v1.142z"></path>
<path fill="#fcf9f9" style="fill: var(--color1, #fcf9f9)" opacity="0.1" d="M16.864 10.274h-1.123v-1.142h1.123v1.142z"></path>
<path fill="#fcf9f9" style="fill: var(--color1, #fcf9f9)" opacity="0.1" d="M15.741 10.274h-1.123v-1.142h1.123v1.142z"></path>
<path fill="#fcf9f9" style="fill: var(--color1, #fcf9f9)" opacity="0.1" d="M7.882 10.274h-1.123v-1.142h1.123v1.142z"></path>
<path fill="#fcf9f9" style="fill: var(--color1, #fcf9f9)" opacity="0.1" d="M6.759 10.274h-1.123v-1.142h1.123v1.142z"></path>
<path fill="#fcf9f9" style="fill: var(--color1, #fcf9f9)" opacity="0.1" d="M19.11 9.133h-1.123v-1.142h1.123v1.142z"></path>
<path fill="#fcf9f9" style="fill: var(--color1, #fcf9f9)" opacity="0.1" d="M16.864 9.133h-1.123v-1.142h1.123v1.142z"></path>
<path fill="#fcf9f9" style="fill: var(--color1, #fcf9f9)" opacity="0.1" d="M6.759 9.133h-1.123v-1.142h1.123v1.142z"></path>
<path fill="#fcf9f9" style="fill: var(--color1, #fcf9f9)" opacity="0.1" d="M1.145 7.991h-1.123v-1.142h1.123v1.142z"></path>
<path fill="#fcf9f9" style="fill: var(--color1, #fcf9f9)" opacity="0.1" d="M14.619 6.849h-1.123v-1.142h1.123v1.142z"></path>
<path fill="#fcf9f9" style="fill: var(--color1, #fcf9f9)" opacity="0.1" d="M13.496 6.849h-1.123v-1.142h1.123v1.142z"></path>
<path fill="#fcf9f9" style="fill: var(--color1, #fcf9f9)" opacity="0.1" d="M12.373 6.849h-1.123v-1.142h1.123v1.142z"></path>
<path fill="#fcf9f9" style="fill: var(--color1, #fcf9f9)" opacity="0.1" d="M2.268 6.849h-1.123v-1.142h1.123v1.142z"></path>
<path fill="#fcf9f9" style="fill: var(--color1, #fcf9f9)" opacity="0.1" d="M1.145 6.849h-1.123v-1.142h1.123v1.142z"></path>
<path fill="#fcf9f9" style="fill: var(--color1, #fcf9f9)" opacity="0.1" d="M19.11 5.708h-1.123v-1.142h1.123v1.142z"></path>
<path fill="#fcf9f9" style="fill: var(--color1, #fcf9f9)" opacity="0.1" d="M16.864 5.708h-1.123v-1.142h1.123v1.142z"></path>
<path fill="#fcf9f9" style="fill: var(--color1, #fcf9f9)" opacity="0.1" d="M13.496 5.708h-1.123v-1.142h1.123v1.142z"></path>
<path fill="#fcf9f9" style="fill: var(--color1, #fcf9f9)" opacity="0.1" d="M12.373 5.708h-1.123v-1.142h1.123v1.142z"></path>
<path fill="#fcf9f9" style="fill: var(--color1, #fcf9f9)" opacity="0.1" d="M11.25 5.708h-1.123v-1.142h1.123v1.142z"></path>
<path fill="#fcf9f9" style="fill: var(--color1, #fcf9f9)" opacity="0.1" d="M3.391 5.708h-1.123v-1.142h1.123v1.142z"></path>
<path fill="#fcf9f9" style="fill: var(--color1, #fcf9f9)" opacity="0.1" d="M2.268 5.708h-1.123v-1.142h1.123v1.142z"></path>
<path fill="#fcf9f9" style="fill: var(--color1, #fcf9f9)" opacity="0.1" d="M1.145 5.708h-1.123v-1.142h1.123v1.142z"></path>
<path fill="#fcf9f9" style="fill: var(--color1, #fcf9f9)" opacity="0.1" d="M20.232 4.566h-1.123v-1.142h1.123v1.142z"></path>
<path fill="#fcf9f9" style="fill: var(--color1, #fcf9f9)" opacity="0.1" d="M19.11 4.566h-1.123v-1.142h1.123v1.142z"></path>
<path fill="#fcf9f9" style="fill: var(--color1, #fcf9f9)" opacity="0.1" d="M16.864 4.566h-1.123v-1.142h1.123v1.142z"></path>
<path fill="#fcf9f9" style="fill: var(--color1, #fcf9f9)" opacity="0.1" d="M15.741 4.566h-1.123v-1.142h1.123v1.142z"></path>
<path fill="#fcf9f9" style="fill: var(--color1, #fcf9f9)" opacity="0.1" d="M12.373 4.566h-1.123v-1.142h1.123v1.142z"></path>
<path fill="#fcf9f9" style="fill: var(--color1, #fcf9f9)" opacity="0.1" d="M11.25 4.566h-1.123v-1.142h1.123v1.142z"></path>
<path fill="#fcf9f9" style="fill: var(--color1, #fcf9f9)" opacity="0.1" d="M10.127 4.566h-1.123v-1.142h1.123v1.142z"></path>
<path fill="#fcf9f9" style="fill: var(--color1, #fcf9f9)" opacity="0.1" d="M4.513 4.566h-1.123v-1.142h1.123v1.142z"></path>
<path fill="#fcf9f9" style="fill: var(--color1, #fcf9f9)" opacity="0.1" d="M3.391 4.566h-1.123v-1.142h1.123v1.142z"></path>
<path fill="#fcf9f9" style="fill: var(--color1, #fcf9f9)" opacity="0.1" d="M2.268 4.566h-1.123v-1.142h1.123v1.142z"></path>
<path fill="#fcf9f9" style="fill: var(--color1, #fcf9f9)" opacity="0.1" d="M20.232 3.425h-1.123v-1.142h1.123v1.142z"></path>
<path fill="#fcf9f9" style="fill: var(--color1, #fcf9f9)" opacity="0.1" d="M19.11 3.425h-1.123v-1.142h1.123v1.142z"></path>
<path fill="#fcf9f9" style="fill: var(--color1, #fcf9f9)" opacity="0.1" d="M16.864 3.425h-1.123v-1.142h1.123v1.142z"></path>
<path fill="#fcf9f9" style="fill: var(--color1, #fcf9f9)" opacity="0.1" d="M15.741 3.425h-1.123v-1.142h1.123v1.142z"></path>
<path fill="#fcf9f9" style="fill: var(--color1, #fcf9f9)" opacity="0.1" d="M14.619 3.425h-1.123v-1.142h1.123v1.142z"></path>
<path fill="#fcf9f9" style="fill: var(--color1, #fcf9f9)" opacity="0.1" d="M5.636 3.425h-1.123v-1.142h1.123v1.142z"></path>
<path fill="#fcf9f9" style="fill: var(--color1, #fcf9f9)" opacity="0.1" d="M4.513 3.425h-1.123v-1.142h1.123v1.142z"></path>
<path fill="#fcf9f9" style="fill: var(--color1, #fcf9f9)" opacity="0.1" d="M3.391 3.425h-1.123v-1.142h1.123v1.142z"></path>
<path fill="#fcf9f9" style="fill: var(--color1, #fcf9f9)" opacity="0.1" d="M20.232 2.283h-1.123v-1.142h1.123v1.142z"></path>
<path fill="#fcf9f9" style="fill: var(--color1, #fcf9f9)" opacity="0.1" d="M15.741 2.283h-1.123v-1.142h1.123v1.142z"></path>
<path fill="#fcf9f9" style="fill: var(--color1, #fcf9f9)" opacity="0.1" d="M14.619 2.283h-1.123v-1.142h1.123v1.142z"></path>
<path fill="#fcf9f9" style="fill: var(--color1, #fcf9f9)" opacity="0.1" d="M6.759 2.283h-1.123v-1.142h1.123v1.142z"></path>
<path fill="#fcf9f9" style="fill: var(--color1, #fcf9f9)" opacity="0.1" d="M5.636 2.283h-1.123v-1.142h1.123v1.142z"></path>
<path fill="#fcf9f9" style="fill: var(--color1, #fcf9f9)" opacity="0.1" d="M4.513 2.283h-1.123v-1.142h1.123v1.142z"></path>
<path fill="#fcf9f9" style="fill: var(--color1, #fcf9f9)" opacity="0.1" d="M14.619 1.142h-1.123v-1.142h1.123v1.142z"></path>
<path fill="#fcf9f9" style="fill: var(--color1, #fcf9f9)" opacity="0.1" d="M7.882 1.142h-1.123v-1.142h1.123v1.142z"></path>
<path fill="#fcf9f9" style="fill: var(--color1, #fcf9f9)" opacity="0.1" d="M6.759 1.142h-1.123v-1.142h1.123v1.142z"></path>
<path fill="#fcf9f9" style="fill: var(--color1, #fcf9f9)" opacity="0.1" d="M5.636 1.142h-1.123v-1.142h1.123v1.142z"></path>
<path fill="#fcf9f9" style="fill: var(--color1, #fcf9f9)" opacity="0.1" d="M1.145 1.142h-1.123v-1.142h1.123v1.142z"></path>
</symbol>
<symbol id="icon-vyshyvanka-icon" viewBox="0 0 30 32">
<path fill="#ecd979" style="fill: var(--color1, #ecd979)" d="M31.114 32.814h-1.636v-1.66h1.636v1.66zM21.299 32.814h-1.636v-1.66h1.636v1.66zM19.663 32.814h-1.636v-1.66h1.636v1.66zM18.027 32.814h-1.636v-1.66h1.636v1.66zM3.304 32.814h-1.636v-1.66h1.636v1.66zM1.668 32.814h-1.636v-1.66h1.636v1.66zM27.843 31.153h-1.636v-1.661h1.636v1.661zM24.571 31.153h-1.636v-1.661h1.636v1.661zM9.848 31.153h-1.636v-1.661h1.636v1.661z"></path>
<path fill="#ecd979" style="fill: var(--color1, #ecd979)" d="M1.668 31.153h-1.636v-1.661h1.636v1.661zM29.479 29.493h-1.636v-1.66h1.636v1.66z"></path>
<path fill="#ecd979" style="fill: var(--color1, #ecd979)" d="M27.843 29.493h-1.636v-1.66h1.636v1.66zM24.571 29.493h-1.636v-1.66h1.636v1.66z"></path>
<path fill="#ecd979" style="fill: var(--color1, #ecd979)" d="M22.935 29.493h-1.636v-1.66h1.636v1.66zM11.484 29.493h-1.636v-1.66h1.636v1.66zM9.848 29.493h-1.636v-1.66h1.636v1.66zM31.114 27.832h-1.636v-1.66h1.636v1.66zM29.479 27.832h-1.636v-1.66h1.636v1.66zM22.935 27.832h-1.636v-1.66h1.636v1.66zM21.299 27.832h-1.636v-1.66h1.636v1.66zM13.12 27.832h-1.636v-1.66h1.636v1.66zM11.484 27.832h-1.636v-1.66h1.636v1.66zM9.848 27.832h-1.636v-1.66h1.636v1.66z"></path>
<path fill="#ecd979" style="fill: var(--color1, #ecd979)" d="M31.114 26.172h-1.636v-1.66h1.636v1.66zM21.299 26.172h-1.636v-1.66h1.636v1.66zM19.663 26.172h-1.636v-1.66h1.636v1.66zM13.12 26.172h-1.636v-1.66h1.636v1.66zM11.484 26.172h-1.636v-1.66h1.636v1.66zM19.663 24.511h-1.636v-1.66h1.636v1.66zM18.027 24.511h-1.636v-1.66h1.636v1.66zM13.12 24.511h-1.636v-1.66h1.636v1.66zM8.212 24.511h-1.636v-1.66h1.636v1.66z"></path>
<path fill="#ecd979" style="fill: var(--color1, #ecd979)" d="M6.576 24.511h-1.636v-1.66h1.636v1.66z"></path>
<path fill="#ecd979" style="fill: var(--color1, #ecd979)" d="M4.94 24.511h-1.636v-1.66h1.636v1.66zM18.027 22.851h-1.636v-1.66h1.636v1.66z"></path>
<path fill="#ecd979" style="fill: var(--color1, #ecd979)" d="M16.392 22.851h-1.636v-1.66h1.636v1.66zM9.848 22.851h-1.636v-1.66h1.636v1.66zM8.212 22.851h-1.636v-1.66h1.636v1.66z"></path>
<path fill="#ecd979" style="fill: var(--color1, #ecd979)" d="M6.576 22.851h-1.636v-1.66h1.636v1.66zM26.207 21.19h-1.636v-1.66h1.636v1.66zM16.392 21.19h-1.636v-1.66h1.636v1.66zM14.756 21.19h-1.636v-1.66h1.636v1.66zM11.484 21.19h-1.636v-1.66h1.636v1.66zM9.848 21.19h-1.636v-1.66h1.636v1.66zM8.212 21.19h-1.636v-1.66h1.636v1.66zM1.636 19.53h-1.636v-1.661h1.636v1.661zM3.304 19.53h-1.636v-1.661h1.636v1.661z"></path>
<path fill="#ecd979" style="fill: var(--color1, #ecd979)" d="M1.636 21.19h-1.636v-1.66h1.636v1.66zM1.636 17.869h-1.636v-1.661h1.636v1.661zM27.843 19.53h-1.636v-1.661h1.636v1.661z"></path>
<path fill="#ecd979" style="fill: var(--color1, #ecd979)" d="M26.207 19.53h-1.636v-1.661h1.636v1.661zM24.571 19.53h-1.636v-1.661h1.636v1.661z"></path>
<path fill="#ecd979" style="fill: var(--color1, #ecd979)" d="M26.207 17.869h-1.636v-1.661h1.636v1.661zM16.392 17.869h-1.636v-1.661h1.636v1.661zM14.756 17.869h-1.636v-1.661h1.636v1.661zM11.484 17.869h-1.636v-1.661h1.636v1.661zM9.848 17.869h-1.636v-1.661h1.636v1.661zM8.212 17.869h-1.636v-1.661h1.636v1.661z"></path>
<path fill="#ecd979" style="fill: var(--color1, #ecd979)" d="M18.027 16.209h-1.636v-1.66h1.636v1.66z"></path>
<path fill="#ecd979" style="fill: var(--color1, #ecd979)" d="M16.392 16.209h-1.636v-1.66h1.636v1.66zM9.848 16.209h-1.636v-1.66h1.636v1.66zM8.212 16.209h-1.636v-1.66h1.636v1.66z"></path>
<path fill="#ecd979" style="fill: var(--color1, #ecd979)" d="M6.576 16.209h-1.636v-1.66h1.636v1.66zM19.663 14.548h-1.636v-1.66h1.636v1.66zM18.027 14.548h-1.636v-1.66h1.636v1.66zM13.12 14.548h-1.636v-1.66h1.636v1.66zM8.212 14.548h-1.636v-1.66h1.636v1.66z"></path>
<path fill="#ecd979" style="fill: var(--color1, #ecd979)" d="M6.576 14.548h-1.636v-1.66h1.636v1.66z"></path>
<path fill="#ecd979" style="fill: var(--color1, #ecd979)" d="M4.94 14.548h-1.636v-1.66h1.636v1.66zM31.114 12.888h-1.636v-1.66h1.636v1.66zM21.299 12.888h-1.636v-1.66h1.636v1.66zM19.663 12.888h-1.636v-1.66h1.636v1.66zM13.12 12.888h-1.636v-1.66h1.636v1.66zM11.484 12.888h-1.636v-1.66h1.636v1.66zM31.114 11.227h-1.636v-1.66h1.636v1.66zM29.479 11.227h-1.636v-1.66h1.636v1.66zM22.935 11.227h-1.636v-1.66h1.636v1.66zM21.299 11.227h-1.636v-1.66h1.636v1.66zM13.12 11.227h-1.636v-1.66h1.636v1.66zM11.484 11.227h-1.636v-1.66h1.636v1.66zM9.848 11.227h-1.636v-1.66h1.636v1.66zM29.479 9.567h-1.636v-1.66h1.636v1.66z"></path>
<path fill="#ecd979" style="fill: var(--color1, #ecd979)" d="M27.843 9.567h-1.636v-1.66h1.636v1.66zM24.571 9.567h-1.636v-1.66h1.636v1.66z"></path>
<path fill="#ecd979" style="fill: var(--color1, #ecd979)" d="M22.935 9.567h-1.636v-1.66h1.636v1.66zM11.484 9.567h-1.636v-1.66h1.636v1.66zM9.848 9.567h-1.636v-1.66h1.636v1.66zM27.843 7.906h-1.636v-1.66h1.636v1.66zM24.571 7.906h-1.636v-1.66h1.636v1.66zM9.848 7.906h-1.636v-1.66h1.636v1.66zM1.668 6.246h-1.636v-1.661h1.636v1.661zM31.114 4.586h-1.636v-1.661h1.636v1.661zM21.299 4.586h-1.636v-1.661h1.636v1.661zM19.663 4.586h-1.636v-1.661h1.636v1.661zM18.027 4.586h-1.636v-1.661h1.636v1.661zM3.304 4.586h-1.636v-1.661h1.636v1.661z"></path>
<path fill="#ecd979" style="fill: var(--color1, #ecd979)" d="M1.668 4.586h-1.636v-1.661h1.636v1.661zM27.843 2.925h-1.636v-1.66h1.636v1.66zM24.571 2.925h-1.636v-1.66h1.636v1.66zM19.663 2.925h-1.636v-1.66h1.636v1.66zM18.027 2.925h-1.636v-1.66h1.636v1.66z"></path>
<path fill="#ecd979" style="fill: var(--color1, #ecd979)" d="M16.392 2.925h-1.636v-1.66h1.636v1.66zM4.94 2.925h-1.636v-1.66h1.636v1.66z"></path>
<path fill="#ecd979" style="fill: var(--color1, #ecd979)" d="M3.304 2.925h-1.636v-1.66h1.636v1.66zM1.668 2.925h-1.636v-1.66h1.636v1.66zM29.479 1.264h-1.636v-1.66h1.636v1.66z"></path>
<path fill="#ecd979" style="fill: var(--color1, #ecd979)" d="M27.843 1.264h-1.636v-1.66h1.636v1.66zM24.571 1.264h-1.636v-1.66h1.636v1.66z"></path>
<path fill="#ecd979" style="fill: var(--color1, #ecd979)" d="M22.935 1.264h-1.636v-1.66h1.636v1.66zM18.027 1.264h-1.636v-1.66h1.636v1.66z"></path>
<path fill="#ecd979" style="fill: var(--color1, #ecd979)" d="M16.392 1.264h-1.636v-1.66h1.636v1.66zM14.756 1.264h-1.636v-1.66h1.636v1.66zM6.576 1.264h-1.636v-1.66h1.636v1.66z"></path>
<path fill="#ecd979" style="fill: var(--color1, #ecd979)" d="M4.94 1.264h-1.636v-1.66h1.636v1.66z"></path>
<path fill="#ecd979" style="fill: var(--color1, #ecd979)" d="M3.304 1.264h-1.636v-1.66h1.636v1.66z"></path>
</symbol>

</defs>
</svg>
