<svg xmlns="http://www.w3.org/2000/svg" width="336" height="363" fill="none">
  <g fill="#ECD979" clip-path="url(#a)">
    <path d="M352.954 372.23h-18.557v-18.836h18.557v18.836ZM241.614 372.23h-18.557v-18.836h18.557v18.836ZM223.057 372.23h-18.558v-18.836h18.558v18.836ZM204.499 372.23h-18.558v-18.836h18.558v18.836ZM37.481 372.23H18.924v-18.836H37.48v18.836ZM18.924 372.23H.367v-18.836h18.557v18.836ZM315.84 353.395h-18.558v-18.837h18.558v18.837ZM278.729 353.395h-18.558v-18.837h18.558v18.837ZM111.711 353.395H93.154v-18.837h18.557v18.837Z"/>
    <path d="M18.924 353.395H.367v-18.837h18.557v18.837ZM334.397 334.558h-18.558v-18.836h18.558v18.836Z"/>
    <path d="M315.84 334.558h-18.558v-18.836h18.558v18.836ZM278.729 334.558h-18.558v-18.836h18.558v18.836Z"/>
    <path d="M260.172 334.558h-18.558v-18.836h18.558v18.836ZM130.269 334.558h-18.558v-18.836h18.558v18.836ZM111.711 334.558H93.154v-18.836h18.557v18.836ZM352.954 315.722h-18.557v-18.836h18.557v18.836ZM334.397 315.722h-18.558v-18.836h18.558v18.836ZM260.172 315.722h-18.558v-18.836h18.558v18.836ZM241.614 315.722h-18.557v-18.836h18.557v18.836ZM148.827 315.722h-18.558v-18.836h18.558v18.836ZM130.269 315.722h-18.558v-18.836h18.558v18.836ZM111.711 315.722H93.154v-18.836h18.557v18.836Z"/>
    <path d="M352.954 296.886h-18.557V278.05h18.557v18.836ZM241.614 296.886h-18.557V278.05h18.557v18.836ZM223.057 296.886h-18.558V278.05h18.558v18.836ZM148.827 296.886h-18.558V278.05h18.558v18.836ZM130.269 296.886h-18.558V278.05h18.558v18.836ZM223.057 278.05h-18.558v-18.836h18.558v18.836ZM204.499 278.05h-18.558v-18.836h18.558v18.836ZM148.827 278.05h-18.558v-18.836h18.558v18.836ZM93.154 278.05H74.597v-18.836h18.557v18.836Z"/>
    <path d="M74.597 278.05H56.039v-18.836h18.558v18.836Z"/>
    <path d="M56.039 278.05H37.48v-18.836H56.04v18.836ZM204.499 259.214h-18.558v-18.836h18.558v18.836Z"/>
    <path d="M185.942 259.214h-18.558v-18.836h18.558v18.836ZM111.711 259.214H93.154v-18.836h18.557v18.836ZM93.154 259.214H74.597v-18.836h18.557v18.836Z"/>
    <path d="M74.597 259.214H56.039v-18.836h18.558v18.836ZM297.287 240.378h-18.558v-18.836h18.558v18.836ZM185.942 240.378h-18.558v-18.836h18.558v18.836ZM167.384 240.378h-18.557v-18.836h18.557v18.836ZM130.269 240.378h-18.558v-18.836h18.558v18.836ZM111.711 240.378H93.154v-18.836h18.557v18.836ZM93.154 240.378H74.597v-18.836h18.557v18.836ZM18.558 221.542H0v-18.837h18.558v18.837ZM37.481 221.542H18.924v-18.837H37.48v18.837Z"/>
    <path d="M18.558 240.378H0v-18.836h18.558v18.836ZM18.558 202.706H0v-18.837h18.558v18.837ZM315.84 221.542h-18.558v-18.837h18.558v18.837Z"/>
    <path d="M297.287 221.542h-18.558v-18.837h18.558v18.837ZM278.729 221.542h-18.558v-18.837h18.558v18.837Z"/>
    <path d="M297.287 202.706h-18.558v-18.837h18.558v18.837ZM185.942 202.706h-18.558v-18.837h18.558v18.837ZM167.384 202.706h-18.557v-18.837h18.557v18.837ZM130.269 202.706h-18.558v-18.837h18.558v18.837ZM111.711 202.706H93.154v-18.837h18.557v18.837ZM93.154 202.706H74.597v-18.837h18.557v18.837Z"/>
    <path d="M204.499 183.87h-18.558v-18.836h18.558v18.836Z"/>
    <path d="M185.942 183.87h-18.558v-18.836h18.558v18.836ZM111.711 183.87H93.154v-18.836h18.557v18.836ZM93.154 183.87H74.597v-18.836h18.557v18.836Z"/>
    <path d="M74.597 183.87H56.039v-18.836h18.558v18.836ZM223.057 165.033h-18.558v-18.836h18.558v18.836ZM204.499 165.033h-18.558v-18.836h18.558v18.836ZM148.827 165.033h-18.558v-18.836h18.558v18.836ZM93.154 165.033H74.597v-18.836h18.557v18.836Z"/>
    <path d="M74.597 165.033H56.039v-18.836h18.558v18.836Z"/>
    <path d="M56.039 165.033H37.48v-18.836H56.04v18.836ZM352.954 146.197h-18.557v-18.836h18.557v18.836ZM241.614 146.197h-18.557v-18.836h18.557v18.836ZM223.057 146.197h-18.558v-18.836h18.558v18.836ZM148.827 146.197h-18.558v-18.836h18.558v18.836ZM130.269 146.197h-18.558v-18.836h18.558v18.836ZM352.954 127.361h-18.557v-18.836h18.557v18.836ZM334.397 127.361h-18.558v-18.836h18.558v18.836ZM260.172 127.361h-18.558v-18.836h18.558v18.836ZM241.614 127.361h-18.557v-18.836h18.557v18.836ZM148.827 127.361h-18.558v-18.836h18.558v18.836ZM130.269 127.361h-18.558v-18.836h18.558v18.836ZM111.711 127.361H93.154v-18.836h18.557v18.836ZM334.397 108.525h-18.558V89.689h18.558v18.836Z"/>
    <path d="M315.84 108.525h-18.558V89.689h18.558v18.836ZM278.729 108.525h-18.558V89.689h18.558v18.836Z"/>
    <path d="M260.172 108.525h-18.558V89.689h18.558v18.836ZM130.269 108.525h-18.558V89.689h18.558v18.836ZM111.711 108.525H93.154V89.689h18.557v18.836ZM315.84 89.689h-18.558V70.853h18.558v18.836ZM278.729 89.689h-18.558V70.853h18.558v18.836ZM111.711 89.689H93.154V70.853h18.557v18.836ZM18.924 70.853H.367V52.016h18.557v18.837ZM352.954 52.017h-18.557V33.18h18.557v18.837ZM241.614 52.017h-18.557V33.18h18.557v18.837ZM223.057 52.017h-18.558V33.18h18.558v18.837ZM204.499 52.017h-18.558V33.18h18.558v18.837ZM37.481 52.017H18.924V33.18H37.48v18.837Z"/>
    <path d="M18.924 52.017H.367V33.18h18.557v18.837ZM315.84 33.18h-18.558V14.344h18.558V33.18ZM278.729 33.18h-18.558V14.344h18.558V33.18ZM223.057 33.18h-18.558V14.344h18.558V33.18ZM204.499 33.18h-18.558V14.344h18.558V33.18Z"/>
    <path d="M185.942 33.18h-18.558V14.344h18.558V33.18ZM56.039 33.18H37.48V14.344H56.04V33.18Z"/>
    <path d="M37.481 33.18H18.924V14.344H37.48V33.18ZM18.924 33.18H.367V14.344h18.557V33.18ZM334.397 14.344h-18.558V-4.492h18.558v18.836Z"/>
    <path d="M315.84 14.344h-18.558V-4.492h18.558v18.836ZM278.729 14.344h-18.558V-4.492h18.558v18.836Z"/>
    <path d="M260.172 14.344h-18.558V-4.492h18.558v18.836ZM204.499 14.344h-18.558V-4.492h18.558v18.836Z"/>
    <path d="M185.942 14.344h-18.558V-4.492h18.558v18.836ZM167.384 14.344h-18.557V-4.492h18.557v18.836ZM74.597 14.344H56.039V-4.492h18.558v18.836Z"/>
    <path d="M56.039 14.344H37.48V-4.492H56.04v18.836Z"/>
    <path d="M37.481 14.344H18.924V-4.492H37.48v18.836Z"/>
  </g>
  <defs>
    <clipPath id="a">
      <path fill="#fff" d="M0-61h595v528H0z"/>
    </clipPath>
  </defs>
</svg>
